<svg xmlns="http://www.w3.org/2000/svg" width="20" height="20" viewBox="0 0 20 20">
    <g fill="none" fill-rule="evenodd">
        <path d="M0 0h20v20H0z"/>
        <path fill="#FF3244" d="M17.71 15.627H3.068v-1.661c0-.876.36-1.675 1.016-2.253l.364-.321.087-.477c.169-.923.733-4.021.91-5.178a5.207 5.207 0 0 1 1.673-3.09 4.916 4.916 0 0 1 6.544 0 5.2 5.2 0 0 1 1.67 3.09c.187 1.2.793 4.524.913 5.178l.087.477.364.321a2.964 2.964 0 0 1 1.016 2.253v1.661zM10.39 18.6c-.986 0-1.827-.65-2.096-1.573h4.192a2.178 2.178 0 0 1-2.096 1.573zm7.232-7.937c-.156-.855-.728-3.994-.905-5.14a6.608 6.608 0 0 0-2.124-3.922 6.319 6.319 0 0 0-8.406 0 6.608 6.608 0 0 0-2.124 3.922c-.177 1.145-.75 4.285-.905 5.14a4.38 4.38 0 0 0-1.49 3.303v3.061h5.182A3.596 3.596 0 0 0 10.389 20a3.595 3.595 0 0 0 3.539-2.973h5.183v-3.061a4.38 4.38 0 0 0-1.49-3.303z"/>
    </g>
</svg>
