<?xml version="1.0" encoding="utf-8"?>
<!-- Generator: Adobe Illustrator 25.0.0, SVG Export Plug-In . SVG Version: 6.00 Build 0)  -->
<svg version="1.1" id="圖層_1" xmlns="http://www.w3.org/2000/svg" xmlns:xlink="http://www.w3.org/1999/xlink" x="0px" y="0px"
	 viewBox="0 0 209.1 19.45" style="enable-background:new 0 0 209.1 19.45;" xml:space="preserve">
<style type="text/css">
	.st0{fill:#121212;}
</style>
<path class="st0" d="M8.21,17.7c-1.71,0-3.17-0.31-4.4-0.94c-1.23-0.63-2.17-1.54-2.82-2.72C0.33,12.86,0,11.45,0,9.83
	c0-1.64,0.33-3.04,0.99-4.22c0.66-1.18,1.59-2.08,2.8-2.71C5,2.27,6.45,1.95,8.13,1.95c0.92,0,1.8,0.1,2.62,0.3S12.33,2.77,13,3.19
	l-0.44,1.45c-0.62-0.38-1.31-0.66-2.07-0.86c-0.76-0.2-1.55-0.29-2.36-0.29c-1.32,0-2.45,0.25-3.39,0.76
	c-0.95,0.5-1.67,1.23-2.18,2.17C2.04,7.36,1.79,8.5,1.79,9.83s0.26,2.47,0.77,3.41c0.51,0.94,1.25,1.67,2.21,2.17
	c0.96,0.5,2.11,0.76,3.45,0.76c0.74,0,1.48-0.08,2.22-0.23c0.73-0.15,1.38-0.37,1.92-0.65l-0.31,0.65v-5.65H6.3V8.84h7.41v7.69
	c-0.73,0.36-1.58,0.65-2.56,0.86C10.17,17.6,9.19,17.7,8.21,17.7z"/>
<path class="st0" d="M19.68,17.7c-1.09,0-1.96-0.3-2.6-0.89c-0.64-0.59-0.97-1.4-0.97-2.4c0-1.27,0.51-2.25,1.53-2.92
	c1.02-0.67,2.48-1.01,4.39-1.01h1.72c0-0.98-0.22-1.68-0.67-2.1c-0.45-0.42-1.21-0.63-2.29-0.63c-0.74,0-1.43,0.09-2.07,0.27
	c-0.64,0.18-1.28,0.46-1.92,0.84l-0.27-1.41c0.67-0.38,1.37-0.65,2.1-0.83c0.73-0.17,1.51-0.26,2.35-0.26
	c1.06,0,1.92,0.14,2.58,0.42c0.66,0.28,1.13,0.73,1.43,1.36c0.29,0.63,0.44,1.46,0.44,2.48v6.87h-1.6l-0.02-1.47h-0.04
	c-0.36,0.49-0.93,0.89-1.7,1.21C21.3,17.55,20.5,17.7,19.68,17.7z M20.24,16.32c0.64,0,1.23-0.12,1.76-0.37
	c0.53-0.24,0.96-0.58,1.27-1.01c0.31-0.43,0.47-0.9,0.47-1.42v-1.74h-1.51c-1.48,0-2.6,0.21-3.35,0.63
	c-0.75,0.42-1.12,1.03-1.12,1.83c0,0.64,0.21,1.15,0.64,1.52C18.83,16.13,19.45,16.32,20.24,16.32z"/>
<path class="st0" d="M28.62,17.49V6.57h1.55l0.02,1.6h0.04c0.35-0.57,0.82-1.02,1.41-1.33c0.59-0.31,1.25-0.47,2-0.47
	c0.76,0,1.4,0.16,1.94,0.47c0.54,0.32,0.91,0.76,1.12,1.33h0.04c0.34-0.6,0.8-1.05,1.4-1.35c0.59-0.3,1.31-0.45,2.15-0.45
	c1.22,0,2.09,0.34,2.6,1.03c0.52,0.69,0.78,1.84,0.78,3.46v6.64h-1.62v-6.43c0-1.19-0.17-2.04-0.51-2.55
	C41.21,8,40.63,7.75,39.84,7.75c-0.94,0-1.65,0.32-2.14,0.97c-0.49,0.64-0.73,1.58-0.73,2.81v5.96h-1.62v-7.14
	c0-0.81-0.2-1.45-0.59-1.91c-0.39-0.46-0.93-0.69-1.62-0.69c-0.84,0-1.53,0.35-2.07,1.05s-0.81,1.61-0.81,2.73v5.96H28.62z"/>
<path class="st0" d="M51.49,17.7c-1.75,0-3.1-0.49-4.05-1.47c-0.95-0.98-1.43-2.38-1.43-4.2c0-1.76,0.46-3.15,1.38-4.16
	c0.92-1.01,2.19-1.51,3.81-1.51c1.55,0,2.74,0.47,3.57,1.42c0.83,0.94,1.24,2.3,1.24,4.06c0,0.14,0,0.29,0,0.44
	c0,0.15-0.01,0.29-0.02,0.4h-9.07v-1.34h7.85l-0.31,0.44c0-1.36-0.27-2.37-0.82-3.04c-0.55-0.67-1.36-1.01-2.44-1.01
	c-1.15,0-2.03,0.36-2.65,1.08c-0.62,0.72-0.92,1.75-0.92,3.08v0.42c0,1.32,0.33,2.31,0.99,2.98s1.62,1.01,2.9,1.01
	c0.67,0,1.32-0.09,1.95-0.26c0.63-0.17,1.2-0.43,1.7-0.77l0.36,1.32c-0.53,0.35-1.14,0.62-1.84,0.82S52.26,17.7,51.49,17.7z"/>
<path class="st0" d="M59.91,17.49V8.4h-3.09V6.99h3.09V4.96c0-1.22,0.29-2.13,0.88-2.73c0.59-0.6,1.48-0.9,2.67-0.9
	c0.35,0,0.69,0.03,1.03,0.08c0.34,0.06,0.65,0.13,0.94,0.23L65.2,3.02c-0.5-0.17-1.01-0.25-1.51-0.25c-0.76,0-1.3,0.18-1.63,0.53
	c-0.33,0.35-0.49,0.94-0.49,1.78v1.91h3.82V8.4h-3.82v9.09H59.91z M67.93,17.49V2.16h1.68v15.33H67.93z"/>
<path class="st0" d="M74.72,4.49c-0.36,0-0.66-0.12-0.89-0.35c-0.23-0.23-0.35-0.54-0.35-0.91c0-0.36,0.12-0.66,0.35-0.89
	S74.35,2,74.72,2c0.38,0,0.68,0.12,0.91,0.35s0.35,0.53,0.35,0.89c0,0.38-0.12,0.68-0.35,0.91C75.4,4.38,75.1,4.49,74.72,4.49z
	 M73.88,17.49V6.57h1.68v10.92H73.88z"/>
<path class="st0" d="M84.31,17.7c-1.75,0-3.1-0.49-4.05-1.47c-0.95-0.98-1.43-2.38-1.43-4.2c0-1.76,0.46-3.15,1.38-4.16
	c0.92-1.01,2.19-1.51,3.81-1.51c1.55,0,2.74,0.47,3.57,1.42c0.83,0.94,1.24,2.3,1.24,4.06c0,0.14,0,0.29,0,0.44
	c0,0.15-0.01,0.29-0.02,0.4h-9.07v-1.34h7.85l-0.31,0.44c0-1.36-0.27-2.37-0.82-3.04c-0.55-0.67-1.36-1.01-2.44-1.01
	c-1.15,0-2.03,0.36-2.65,1.08c-0.62,0.72-0.92,1.75-0.92,3.08v0.42c0,1.32,0.33,2.31,0.99,2.98s1.62,1.01,2.9,1.01
	c0.67,0,1.32-0.09,1.95-0.26c0.63-0.17,1.2-0.43,1.7-0.77l0.36,1.32c-0.53,0.35-1.14,0.62-1.84,0.82S85.08,17.7,84.31,17.7z"/>
<path class="st0" d="M91.45,17.49V6.57h1.62v2.27h0.04c0.32-0.5,0.74-0.94,1.24-1.31s1.08-0.66,1.72-0.86
	c0.64-0.2,1.32-0.3,2.04-0.3v1.47c-0.92,0-1.76,0.19-2.52,0.57c-0.76,0.38-1.35,0.88-1.8,1.51s-0.66,1.34-0.66,2.12v5.46H91.45z"/>
<path class="st0" d="M105.92,19.22l-0.76-1.34c0.8-0.55,1.5-1.1,2.12-1.65c0.62-0.55,1.16-1.14,1.64-1.75l0.94,1.09
	c-0.49,0.64-1.05,1.26-1.69,1.86C107.54,18.01,106.79,18.61,105.92,19.22z M108.06,15.5V9.83h-2.69V8.42h4.26v7.08H108.06z
	 M109.12,5.8c-0.57-0.66-1.14-1.29-1.71-1.9c-0.57-0.61-1.16-1.21-1.77-1.82l1.11-0.97c0.6,0.6,1.19,1.21,1.75,1.82
	s1.14,1.24,1.71,1.9L109.12,5.8z M117.49,18.86c-1.22,0-2.28-0.04-3.19-0.13c-0.91-0.08-1.69-0.21-2.35-0.38
	c-0.66-0.17-1.22-0.4-1.68-0.69s-0.85-0.65-1.18-1.07c-0.32-0.42-0.6-0.92-0.84-1.49l1.39-0.19c0.21,0.39,0.45,0.73,0.71,1.02
	c0.27,0.29,0.6,0.53,0.99,0.72c0.39,0.2,0.86,0.35,1.41,0.47c0.55,0.12,1.21,0.2,2.01,0.25c0.79,0.05,1.73,0.07,2.8,0.07h6.97
	l-0.08,1.41H117.49z M111.3,15.98l-1.3-1.11c0.29-0.59,0.54-1.2,0.75-1.85c0.2-0.64,0.36-1.39,0.48-2.23
	c0.12-0.84,0.21-1.85,0.26-3.02c0.06-1.18,0.08-2.59,0.08-4.24h-1.76V2.16h2.88V0.21h1.62v1.95h3v1.37h-4.16
	c0,1.44-0.02,2.71-0.06,3.81s-0.1,2.07-0.19,2.91c-0.08,0.84-0.2,1.59-0.34,2.25c-0.14,0.66-0.31,1.27-0.52,1.83
	S111.58,15.44,111.3,15.98z M114.97,16.23c-0.2,0-0.5-0.02-0.92-0.06c-0.42-0.04-0.87-0.09-1.34-0.15l-0.04-1.39
	c0.38,0.06,0.71,0.1,0.99,0.13c0.28,0.03,0.5,0.04,0.65,0.04c0.15,0,0.29-0.09,0.41-0.26c0.12-0.17,0.22-0.52,0.29-1.03
	c0.08-0.51,0.14-1.27,0.18-2.27c0.04-1,0.06-2.33,0.06-4h-2.94V5.84h4.52c0,1.6-0.01,2.96-0.03,4.11s-0.06,2.09-0.13,2.86
	s-0.14,1.38-0.24,1.84c-0.1,0.46-0.21,0.81-0.35,1.04c-0.13,0.23-0.29,0.38-0.47,0.45C115.42,16.2,115.21,16.23,114.97,16.23z
	 M117.39,5.84l-1.22-0.86c0.66-0.67,1.26-1.43,1.81-2.28s0.99-1.73,1.34-2.64l1.45,0.34c-0.39,1.02-0.88,2-1.45,2.93
	C118.75,4.26,118.1,5.1,117.39,5.84z M120.5,16.13c-0.25,0-0.61-0.01-1.06-0.03s-0.91-0.05-1.35-0.07l-0.06-1.39
	c0.35,0.03,0.72,0.05,1.11,0.06c0.39,0.01,0.69,0.02,0.88,0.02c0.2,0,0.34-0.01,0.42-0.04c0.08-0.03,0.14-0.13,0.17-0.29
	c0.03-0.17,0.04-0.44,0.04-0.82v-2.35h-3.25V9.83h3.25V8h1.6v1.83h2.21v1.39h-2.21v2.54c0,0.53-0.01,0.96-0.04,1.28
	c-0.03,0.32-0.1,0.56-0.21,0.71c-0.11,0.15-0.29,0.26-0.53,0.3C121.23,16.1,120.9,16.13,120.5,16.13z M118.19,6.47V5.1h5.98v1.37
	H118.19z M119.15,3.32V1.93h5.12v1.39H119.15z M121.82,9.47l-1.09-0.92c0.46-0.45,0.88-0.9,1.24-1.35c0.36-0.46,0.72-0.98,1.07-1.56
	l1.13,0.84c-0.36,0.59-0.73,1.12-1.09,1.6C122.72,8.54,122.3,9.01,121.82,9.47z"/>
<path class="st0" d="M127.11,18.98l-1.13-1.45c0.18-0.45,0.34-0.91,0.47-1.38c0.13-0.47,0.24-0.98,0.34-1.54
	c0.09-0.56,0.16-1.19,0.22-1.89c0.06-0.7,0.1-1.49,0.13-2.36c0.03-0.88,0.04-1.87,0.04-2.97v-4.3h3.86V0h1.6v0.97h4.16v1.15h-4.16
	v0.97h4.79v1.28h-8.74v4.14c0,1.32-0.03,2.49-0.09,3.52c-0.06,1.03-0.16,1.95-0.28,2.77c-0.13,0.82-0.29,1.57-0.49,2.25
	C127.61,17.72,127.38,18.37,127.11,18.98z M128.29,7.16l-0.04-1.07l6.76-0.74l0.02,1.07L128.29,7.16z M128.48,18.86l-0.1-1.37
	c0.91-0.1,1.83-0.21,2.77-0.34s1.89-0.27,2.85-0.43c0.96-0.16,1.93-0.33,2.91-0.49l0.04,1.34c-0.98,0.18-1.95,0.35-2.91,0.5
	c-0.96,0.15-1.9,0.29-2.82,0.42C130.28,18.63,129.37,18.75,128.48,18.86z M129.3,11.11V9.98h7.94v1.13H129.3z M129.49,15.2v-3.21
	h7.41v3.21h-5.86v-0.97h4.33v-1.26h-4.33v2.23H129.49z M133.27,9.16c-0.74,0-1.32-0.01-1.74-0.03s-0.73-0.07-0.92-0.14
	c-0.2-0.07-0.32-0.19-0.37-0.36c-0.05-0.17-0.07-0.4-0.07-0.69V4.01h1.51V7.6c0,0.18,0.02,0.31,0.07,0.39
	c0.05,0.08,0.19,0.12,0.43,0.14c0.24,0.01,0.64,0.02,1.22,0.02c0.59,0,1.04-0.01,1.35-0.02c0.31-0.01,0.55-0.06,0.69-0.14
	c0.15-0.08,0.24-0.21,0.27-0.39c0.04-0.18,0.06-0.43,0.07-0.76l1.36,0.17c-0.03,0.53-0.08,0.94-0.15,1.24
	c-0.07,0.29-0.23,0.5-0.47,0.63c-0.25,0.13-0.62,0.2-1.13,0.23C134.89,9.14,134.17,9.16,133.27,9.16z M131.21,17.66
	c-0.11-0.45-0.25-0.92-0.4-1.41c-0.15-0.49-0.32-0.96-0.5-1.41l1.34-0.17c0.18,0.45,0.35,0.92,0.5,1.41
	c0.15,0.49,0.29,0.97,0.42,1.45L131.21,17.66z M134.9,17.58l-1.26-0.29c0.24-0.42,0.46-0.86,0.67-1.32
	c0.21-0.46,0.39-0.94,0.55-1.45l1.3,0.19c-0.17,0.52-0.36,1.02-0.57,1.49S135.16,17.13,134.9,17.58z M136.54,6.34l-1.51-0.44
	c0.2-0.29,0.36-0.6,0.5-0.92c0.14-0.32,0.27-0.65,0.38-0.99l1.51,0.38c-0.11,0.35-0.24,0.69-0.38,1.01
	C136.9,5.7,136.74,6.02,136.54,6.34z M136.75,19.03l-0.82-1.22c1.33-0.73,2.49-1.55,3.48-2.48c0.99-0.92,1.84-1.99,2.57-3.19
	s1.35-2.6,1.87-4.18l1.36,0.48c-0.57,1.69-1.25,3.19-2.03,4.49c-0.78,1.3-1.69,2.45-2.74,3.43
	C139.4,17.36,138.17,18.24,136.75,19.03z M137.17,7.41l-0.08-1.43l8.42-0.8l0.08,1.43L137.17,7.41z M144.02,19.03
	c-0.32,0-0.66-0.13-1.01-0.38c-0.35-0.25-0.7-0.67-1.05-1.24s-0.68-1.33-1-2.27c-0.31-0.94-0.6-2.09-0.84-3.46
	c-0.25-1.37-0.44-2.99-0.59-4.85c-0.15-1.86-0.22-3.99-0.22-6.38h1.64c0,2.41,0.08,4.53,0.24,6.35c0.16,1.83,0.36,3.4,0.61,4.71
	c0.24,1.32,0.5,2.39,0.78,3.22c0.27,0.83,0.52,1.45,0.76,1.85s0.4,0.6,0.49,0.6c0.04,0,0.09-0.04,0.16-0.13s0.13-0.26,0.2-0.51
	c0.07-0.26,0.14-0.64,0.22-1.15c0.08-0.51,0.14-1.2,0.2-2.07l1.41,0.48c-0.07,1.02-0.17,1.87-0.3,2.54c-0.13,0.67-0.29,1.2-0.47,1.6
	c-0.18,0.39-0.38,0.67-0.59,0.84C144.44,18.94,144.23,19.03,144.02,19.03z M143.89,4.75c-0.28-0.56-0.6-1.12-0.94-1.68
	c-0.35-0.56-0.7-1.09-1.05-1.6l1.32-0.63c0.35,0.52,0.7,1.06,1.05,1.63c0.35,0.57,0.67,1.13,0.94,1.69L143.89,4.75z"/>
<path class="st0" d="M148.15,17.6l-0.9-1.2c0.97-0.81,1.79-1.65,2.46-2.5s1.22-1.74,1.64-2.65l1.03,0.59
	c-0.46,1.06-1.05,2.08-1.75,3.06S149.09,16.77,148.15,17.6z M151.51,19.24v-7.35h-3.86v-1.37h3.86V8.8h-3.86V7.5h9.7v1.3h-4.24v1.72
	h4.03v1.37h-4.03v7.35H151.51z M147.8,3.76V2.42h3.72V0.23h1.6v2.18h4.28v1.34H147.8z M150.15,8c-0.17-0.73-0.35-1.46-0.55-2.19
	c-0.2-0.73-0.41-1.45-0.65-2.13l1.39-0.38c0.24,0.69,0.46,1.4,0.65,2.15c0.2,0.75,0.38,1.49,0.55,2.24L150.15,8z M155.52,16.04
	c-0.49-0.6-1.02-1.2-1.59-1.78c-0.57-0.59-1.18-1.18-1.84-1.76l0.8-0.94c0.64,0.57,1.26,1.15,1.86,1.73
	c0.59,0.58,1.16,1.17,1.69,1.75L155.52,16.04z M154.24,8.59l-1.32-0.38c0.36-0.7,0.7-1.47,1.01-2.32c0.31-0.85,0.56-1.72,0.76-2.61
	l1.43,0.19c-0.2,0.94-0.46,1.84-0.78,2.72C155.01,7.06,154.65,7.86,154.24,8.59z M156.76,18.96l-1.2-1.03
	c0.41-0.62,0.77-1.25,1.08-1.9s0.58-1.38,0.81-2.19c0.22-0.81,0.41-1.75,0.55-2.82s0.24-2.33,0.3-3.79s0.09-3.16,0.09-5.12h1.53
	c0,1.97-0.04,3.72-0.1,5.23c-0.07,1.51-0.19,2.85-0.35,4.01s-0.36,2.19-0.61,3.09s-0.54,1.71-0.89,2.45
	C157.63,17.61,157.23,18.31,156.76,18.96z M158.42,3.57L158.4,2.1c1.48-0.11,2.86-0.29,4.13-0.54c1.27-0.24,2.39-0.55,3.37-0.91
	l0.42,1.45C164.19,2.84,161.56,3.33,158.42,3.57z M162.96,19.05V8.4h-4.14V6.93h7.94V8.4h-2.25v10.65H162.96z"/>
<path class="st0" d="M172.07,19.45V16.4h-3.65v-1.32h3.65v-1.74h-1.79V12.1h5.23V10h-5.23V8.82h5.23V6.85h-5.23v6.49h-1.49V5.63
	h3.28V3.86h-3.65v-1.3h3.65V0.42h1.6v2.14h3.84v1.3h-3.84v1.76h3.28v7.71h-3.28v1.74h3.84v1.32h-3.84v3.04H172.07z M177.49,6.57
	l-0.69-1.3c0.69-0.5,1.31-1,1.88-1.49s1.11-1.01,1.63-1.55c0.52-0.55,1.04-1.14,1.57-1.78h1.43c0.52,0.63,1.03,1.22,1.54,1.76
	c0.51,0.55,1.05,1.06,1.62,1.55c0.57,0.49,1.18,0.98,1.84,1.47l-0.69,1.34c-0.98-0.71-1.88-1.47-2.69-2.27
	c-0.81-0.8-1.6-1.69-2.35-2.67c-0.76,0.98-1.54,1.87-2.36,2.67C179.39,5.1,178.48,5.86,177.49,6.57z M181.99,19.45v-6.68h-4.45
	v-1.43h4.45V7.31h-3.7V5.9h8.67v1.41h-3.32v4.03h4.01v1.43h-4.01v6.68H181.99z"/>
<path class="st0" d="M190.64,18.12l-1.28-0.25c0.25-0.95,0.46-1.92,0.62-2.92c0.16-0.99,0.28-1.98,0.35-2.96l1.28,0.13
	c-0.06,1.01-0.17,2.02-0.34,3.02S190.89,17.14,190.64,18.12z M189.46,11.05L189.4,9.7l7.1-0.42l0.04,1.3L189.46,11.05z M192.13,8.51
	c-0.25-0.43-0.53-0.9-0.84-1.41c-0.31-0.5-0.62-1.01-0.94-1.52c-0.32-0.51-0.62-0.98-0.9-1.42l0.86-1.28
	c0.28,0.45,0.58,0.93,0.9,1.44c0.32,0.51,0.64,1.02,0.94,1.51c0.31,0.5,0.58,0.96,0.82,1.38L192.13,8.51z M191.81,5.67l-1.11-0.82
	c0.43-0.71,0.84-1.44,1.22-2.18c0.38-0.74,0.75-1.5,1.11-2.29l1.3,0.59c-0.39,0.81-0.8,1.61-1.22,2.38S192.26,4.9,191.81,5.67z
	 M191.94,10.79l-1.11-0.8c0.91-1.2,1.76-2.42,2.55-3.65s1.54-2.51,2.26-3.82l1.22,0.65c-0.74,1.34-1.52,2.64-2.32,3.9
	C193.73,8.32,192.86,9.56,191.94,10.79z M192.65,19.32V10.4h1.57v8.93H192.65z M195.66,16.21c-0.04-0.42-0.09-0.86-0.15-1.33
	c-0.06-0.47-0.12-0.95-0.19-1.43c-0.07-0.48-0.15-0.93-0.23-1.35l1.22-0.19c0.08,0.42,0.16,0.88,0.23,1.38
	c0.07,0.5,0.14,0.98,0.21,1.46c0.07,0.48,0.12,0.92,0.15,1.34L195.66,16.21z M196.56,11.49c-0.1-0.52-0.22-1.07-0.37-1.66
	s-0.3-1.17-0.47-1.75s-0.34-1.12-0.52-1.63l1.28-0.34c0.18,0.52,0.36,1.07,0.52,1.66c0.17,0.59,0.33,1.18,0.47,1.77
	c0.15,0.6,0.27,1.16,0.37,1.69L196.56,11.49z M196.85,18.56l-0.94-1.11c0.73-0.45,1.41-0.97,2.05-1.58c0.64-0.6,1.18-1.24,1.64-1.9
	c0.45-0.66,0.79-1.32,1-1.96l0.44,0.55h-3.84v-1.28h4.26l0.46,1.03c-0.24,0.77-0.61,1.55-1.12,2.33c-0.51,0.78-1.11,1.52-1.79,2.19
	C198.33,17.51,197.61,18.09,196.85,18.56z M201.75,19.03c-0.2,0-0.48-0.01-0.84-0.03c-0.36-0.02-0.75-0.05-1.16-0.07l-0.04-1.39
	c0.36,0.03,0.71,0.05,1.04,0.07c0.33,0.02,0.58,0.03,0.75,0.03c0.24,0,0.41-0.02,0.5-0.05c0.1-0.04,0.16-0.14,0.19-0.3
	c0.03-0.17,0.04-0.45,0.04-0.86V9.89h-2.96V8.63h7.01V6.57h-7.01V5.29h7.01V3.3h-7.01v6.59h-1.49V1.95h10.12v7.94h-4.09v6.49
	c0,0.59-0.02,1.06-0.06,1.42c-0.04,0.36-0.13,0.62-0.26,0.8c-0.13,0.17-0.34,0.29-0.61,0.35C202.6,19,202.22,19.03,201.75,19.03z
	 M203.03,2.86l-1.68-0.13c0.06-0.21,0.13-0.48,0.22-0.8c0.09-0.32,0.18-0.65,0.27-1c0.09-0.34,0.16-0.62,0.2-0.83l1.68,0.13
	c-0.04,0.22-0.11,0.5-0.2,0.84c-0.09,0.34-0.18,0.67-0.27,1C203.16,2.4,203.08,2.66,203.03,2.86z M208.15,18.82
	c-0.84-0.71-1.63-1.55-2.37-2.52c-0.74-0.97-1.39-2.01-1.95-3.14c-0.56-1.13-1-2.28-1.32-3.45l1.07-0.46
	c0.31,1.02,0.73,2.04,1.28,3.06s1.18,1.97,1.91,2.87c0.73,0.9,1.5,1.68,2.33,2.35L208.15,18.82z M205.42,14.93l-0.97-0.97
	c0.57-0.49,1.12-1.03,1.65-1.63s1.05-1.26,1.56-1.98l1.16,0.82c-0.52,0.74-1.06,1.42-1.63,2.05
	C206.63,13.84,206.04,14.41,205.42,14.93z"/>
</svg>
