<?xml version="1.0" encoding="utf-8"?>
<!-- Generator: Adobe Illustrator 25.0.0, SVG Export Plug-In . SVG Version: 6.00 Build 0)  -->
<svg version="1.1" id="圖層_1" xmlns="http://www.w3.org/2000/svg" xmlns:xlink="http://www.w3.org/1999/xlink" x="0px" y="0px"
	 viewBox="0 0 69.28 15.54" style="enable-background:new 0 0 69.28 15.54;" xml:space="preserve">
<style type="text/css">
	.st0{fill:#121212;}
</style>
<path class="st0" d="M0,15.33V0h1.91l8.27,12.66h0.04V0h1.68v15.33h-1.89L1.72,2.67H1.68v12.66H0z"/>
<path class="st0" d="M20.24,15.54c-1.75,0-3.1-0.49-4.05-1.47c-0.95-0.98-1.43-2.38-1.43-4.2c0-1.76,0.46-3.15,1.38-4.16
	s2.19-1.51,3.81-1.51c1.55,0,2.74,0.47,3.57,1.42c0.83,0.95,1.24,2.3,1.24,4.06c0,0.14,0,0.29,0,0.44s-0.01,0.29-0.02,0.4h-9.07
	V9.18h7.85l-0.31,0.44c0-1.36-0.27-2.37-0.82-3.04s-1.36-1.01-2.44-1.01c-1.15,0-2.03,0.36-2.65,1.08
	c-0.62,0.72-0.92,1.75-0.92,3.08v0.42c0,1.32,0.33,2.31,0.99,2.98s1.62,1.01,2.9,1.01c0.67,0,1.32-0.09,1.95-0.26
	c0.63-0.17,1.2-0.43,1.7-0.77l0.36,1.32c-0.53,0.35-1.14,0.62-1.84,0.82S21.01,15.54,20.24,15.54z"/>
<path class="st0" d="M30.72,15.54c-1.29,0-2.24-0.4-2.86-1.19c-0.62-0.79-0.92-2.01-0.92-3.64v-6.3h1.66v6.01
	c0,1.26,0.21,2.2,0.63,2.81c0.42,0.62,1.06,0.92,1.91,0.92c0.66,0,1.24-0.16,1.74-0.47c0.5-0.32,0.9-0.74,1.2-1.26
	c0.29-0.53,0.44-1.12,0.44-1.8V4.41h1.66v10.92h-1.6l-0.02-1.6c-0.42,0.57-0.96,1.02-1.62,1.33C32.29,15.38,31.55,15.54,30.72,15.54
	z"/>
<path class="st0" d="M44.71,15.54c-1.25,0-2.15-0.27-2.72-0.82s-0.85-1.44-0.85-2.69V5.82h-2.65V4.41h2.65V0.84h1.68v3.57h4.05v1.41
	h-4.05v6.01c0,0.81,0.17,1.39,0.5,1.73s0.9,0.51,1.7,0.51c0.31,0,0.59-0.02,0.84-0.07c0.25-0.05,0.52-0.12,0.8-0.22l0.23,1.39
	c-0.36,0.13-0.72,0.22-1.06,0.28C45.49,15.51,45.11,15.54,44.71,15.54z"/>
<path class="st0" d="M53.95,15.54c-1.75,0-3.1-0.49-4.05-1.47c-0.95-0.98-1.43-2.38-1.43-4.2c0-1.76,0.46-3.15,1.38-4.16
	s2.19-1.51,3.81-1.51c1.55,0,2.74,0.47,3.57,1.42c0.83,0.95,1.24,2.3,1.24,4.06c0,0.14,0,0.29,0,0.44s-0.01,0.29-0.02,0.4h-9.07
	V9.18h7.85l-0.31,0.44c0-1.36-0.27-2.37-0.82-3.04s-1.36-1.01-2.44-1.01c-1.15,0-2.03,0.36-2.65,1.08
	c-0.62,0.72-0.92,1.75-0.92,3.08v0.42c0,1.32,0.33,2.31,0.99,2.98s1.62,1.01,2.9,1.01c0.67,0,1.32-0.09,1.95-0.26
	c0.63-0.17,1.2-0.43,1.7-0.77l0.36,1.32c-0.53,0.35-1.14,0.62-1.84,0.82S54.72,15.54,53.95,15.54z"/>
<path class="st0" d="M66.04,15.54c-1.19,0-2.21-0.23-3.07-0.68s-1.51-1.11-1.96-1.95c-0.46-0.85-0.68-1.86-0.68-3.03
	s0.23-2.19,0.68-3.03c0.45-0.85,1.11-1.5,1.96-1.95s1.88-0.68,3.07-0.68c0.59,0,1.15,0.06,1.68,0.18c0.53,0.12,1.05,0.31,1.55,0.58
	L68.96,6.3c-0.48-0.24-0.95-0.41-1.41-0.52s-0.93-0.17-1.41-0.17c-1.3,0-2.32,0.37-3.05,1.12s-1.09,1.8-1.09,3.14
	c0,1.33,0.36,2.37,1.09,3.13s1.74,1.13,3.05,1.13c0.48,0,0.94-0.06,1.41-0.17c0.46-0.11,0.93-0.29,1.41-0.52l0.31,1.34
	c-0.5,0.25-1.02,0.44-1.55,0.57C67.19,15.48,66.63,15.54,66.04,15.54z"/>
</svg>
