<?xml version="1.0" encoding="utf-8"?>
<!-- Generator: Adobe Illustrator 25.0.0, SVG Export Plug-In . SVG Version: 6.00 Build 0)  -->
<svg version="1.1" id="圖層_1" xmlns="http://www.w3.org/2000/svg" xmlns:xlink="http://www.w3.org/1999/xlink" x="0px" y="0px"
	 viewBox="0 0 202.19 19.7" style="enable-background:new 0 0 202.19 19.7;" xml:space="preserve">
<style type="text/css">
	.st0{fill:#121212;}
</style>
<path class="st0" d="M8.21,17.91c-1.71,0-3.17-0.31-4.4-0.94c-1.23-0.63-2.17-1.54-2.82-2.72C0.33,13.07,0,11.66,0,10.04
	C0,8.4,0.33,6.99,0.99,5.82c0.66-1.18,1.59-2.08,2.8-2.71C5,2.48,6.45,2.16,8.13,2.16c0.92,0,1.8,0.1,2.62,0.3S12.33,2.98,13,3.4
	l-0.44,1.45c-0.62-0.38-1.31-0.66-2.07-0.86C9.73,3.79,8.94,3.7,8.13,3.7c-1.32,0-2.45,0.25-3.39,0.76
	c-0.95,0.5-1.67,1.23-2.18,2.17c-0.51,0.95-0.77,2.08-0.77,3.41s0.26,2.47,0.77,3.41c0.51,0.94,1.25,1.67,2.21,2.17
	c0.96,0.5,2.11,0.76,3.45,0.76c0.74,0,1.48-0.08,2.22-0.23c0.73-0.15,1.38-0.37,1.92-0.65l-0.31,0.65V10.5H6.3V9.05h7.41v7.69
	c-0.73,0.36-1.58,0.65-2.56,0.86C10.17,17.81,9.19,17.91,8.21,17.91z"/>
<path class="st0" d="M19.68,17.91c-1.09,0-1.96-0.3-2.6-0.89c-0.64-0.59-0.97-1.4-0.97-2.4c0-1.27,0.51-2.25,1.53-2.92
	c1.02-0.67,2.48-1.01,4.39-1.01h1.72c0-0.98-0.22-1.68-0.67-2.1c-0.45-0.42-1.21-0.63-2.29-0.63c-0.74,0-1.43,0.09-2.07,0.27
	c-0.64,0.18-1.28,0.46-1.92,0.84l-0.27-1.41c0.67-0.38,1.37-0.65,2.1-0.83c0.73-0.17,1.51-0.26,2.35-0.26
	c1.06,0,1.92,0.14,2.58,0.42c0.66,0.28,1.13,0.73,1.43,1.36c0.29,0.63,0.44,1.46,0.44,2.48v6.87h-1.6l-0.02-1.47h-0.04
	c-0.36,0.49-0.93,0.89-1.7,1.21C21.3,17.76,20.5,17.91,19.68,17.91z M20.24,16.53c0.64,0,1.23-0.12,1.76-0.37
	c0.53-0.24,0.96-0.58,1.27-1.01c0.31-0.43,0.47-0.9,0.47-1.42v-1.74h-1.51c-1.48,0-2.6,0.21-3.35,0.63
	c-0.75,0.42-1.12,1.03-1.12,1.83c0,0.64,0.21,1.15,0.64,1.52C18.83,16.34,19.45,16.53,20.24,16.53z"/>
<path class="st0" d="M28.62,17.7V6.78h1.62v2.27h0.04c0.32-0.5,0.74-0.94,1.24-1.31s1.08-0.66,1.72-0.86c0.64-0.2,1.32-0.3,2.04-0.3
	v1.47c-0.92,0-1.76,0.19-2.52,0.57c-0.76,0.38-1.35,0.88-1.8,1.51s-0.66,1.34-0.66,2.12v5.46H28.62z"/>
<path class="st0" d="M41.22,17.91c-1.75,0-3.1-0.49-4.05-1.47c-0.95-0.98-1.43-2.38-1.43-4.2c0-1.76,0.46-3.15,1.38-4.16
	c0.92-1.01,2.19-1.51,3.81-1.51c1.55,0,2.74,0.47,3.57,1.42c0.83,0.94,1.24,2.3,1.24,4.06c0,0.14,0,0.29,0,0.44
	c0,0.15-0.01,0.29-0.02,0.4h-9.07v-1.34h7.85l-0.31,0.44c0-1.36-0.27-2.37-0.82-3.04c-0.55-0.67-1.36-1.01-2.44-1.01
	c-1.15,0-2.03,0.36-2.65,1.08c-0.62,0.72-0.92,1.75-0.92,3.08v0.42c0,1.32,0.33,2.31,0.99,2.98s1.62,1.01,2.9,1.01
	c0.67,0,1.32-0.09,1.95-0.26c0.63-0.17,1.2-0.43,1.7-0.77l0.36,1.32c-0.53,0.35-1.14,0.62-1.84,0.82S41.99,17.91,41.22,17.91z"/>
<path class="st0" d="M48.36,17.7V6.78h1.62L50,8.38h0.04c0.42-0.59,0.96-1.04,1.62-1.34c0.66-0.31,1.41-0.46,2.27-0.46
	c1.33,0,2.31,0.39,2.94,1.18c0.63,0.78,0.94,2,0.94,3.65v6.3h-1.66V11.7c0-1.26-0.22-2.2-0.65-2.81s-1.1-0.92-1.99-0.92
	c-0.66,0-1.25,0.16-1.79,0.47c-0.53,0.31-0.94,0.73-1.24,1.25c-0.29,0.52-0.44,1.12-0.44,1.81v6.22H48.36z"/>
<path class="st0" d="M63.52,17.91c-1.09,0-1.96-0.3-2.6-0.89c-0.64-0.59-0.97-1.4-0.97-2.4c0-1.27,0.51-2.25,1.53-2.92
	c1.02-0.67,2.48-1.01,4.39-1.01h1.72c0-0.98-0.22-1.68-0.67-2.1c-0.45-0.42-1.21-0.63-2.29-0.63c-0.74,0-1.43,0.09-2.07,0.27
	c-0.64,0.18-1.28,0.46-1.92,0.84l-0.27-1.41c0.67-0.38,1.37-0.65,2.1-0.83c0.73-0.17,1.51-0.26,2.35-0.26
	c1.06,0,1.92,0.14,2.58,0.42c0.66,0.28,1.13,0.73,1.43,1.36c0.29,0.63,0.44,1.46,0.44,2.48v6.87h-1.6l-0.02-1.47h-0.04
	c-0.36,0.49-0.93,0.89-1.7,1.21C65.15,17.76,64.35,17.91,63.52,17.91z M64.09,16.53c0.64,0,1.23-0.12,1.76-0.37
	c0.53-0.24,0.96-0.58,1.27-1.01c0.31-0.43,0.47-0.9,0.47-1.42v-1.74h-1.51c-1.48,0-2.6,0.21-3.35,0.63
	c-0.75,0.42-1.12,1.03-1.12,1.83c0,0.64,0.21,1.15,0.64,1.52C62.68,16.34,63.29,16.53,64.09,16.53z"/>
<path class="st0" d="M77.78,8.97l-0.06-1.45c1.67-0.06,3.41-0.13,5.24-0.22c1.83-0.09,3.71-0.21,5.64-0.35
	c1.93-0.14,3.86-0.3,5.8-0.48l0.23,1.39c-1.96,0.2-3.92,0.37-5.87,0.51s-3.85,0.27-5.7,0.37C81.21,8.83,79.45,8.91,77.78,8.97z
	 M80.09,19.53v-8.99h14.28v8.99h-1.66V18.4H81.75v-1.36h10.96v-5.1H81.75v7.6H80.09z M81.75,8.25l-1.49-0.61
	c0.77-1.08,1.53-2.24,2.29-3.48c0.76-1.24,1.46-2.49,2.1-3.75l1.6,0.57c-0.66,1.29-1.37,2.55-2.14,3.78
	C83.33,6,82.55,7.16,81.75,8.25z M95.82,9.98C95.29,9.3,94.7,8.6,94.04,7.85C93.38,7.11,92.7,6.38,92,5.65
	c-0.7-0.73-1.37-1.4-2-2.02l1.24-0.9c0.64,0.6,1.32,1.27,2.02,2c0.7,0.73,1.38,1.46,2.04,2.18c0.66,0.73,1.25,1.43,1.79,2.1
	L95.82,9.98z"/>
<path class="st0" d="M101.37,10c-0.48-0.53-0.98-1.06-1.52-1.6c-0.54-0.53-1.1-1.06-1.69-1.6l0.97-1.09
	c0.59,0.52,1.15,1.04,1.69,1.56c0.54,0.52,1.05,1.05,1.52,1.59L101.37,10z M100,19.24l-1.34-0.8c0.5-0.94,0.98-1.96,1.42-3.06
	c0.44-1.1,0.82-2.2,1.12-3.31l1.41,0.55c-0.21,0.77-0.45,1.54-0.72,2.31s-0.57,1.52-0.89,2.26C100.67,17.92,100.34,18.61,100,19.24z
	 M101.7,4.91c-0.41-0.48-0.85-0.96-1.34-1.46C99.87,2.96,99.35,2.47,98.8,2l0.97-0.99c0.55,0.48,1.06,0.95,1.55,1.43
	c0.49,0.48,0.95,0.95,1.37,1.43L101.7,4.91z M102.23,6.85l-0.06-1.16l4.96-0.31v1.18L102.23,6.85z M104.35,5.21
	c-0.29-0.34-0.64-0.72-1.04-1.15c-0.4-0.43-0.77-0.83-1.1-1.18l0.63-1.03c0.35,0.35,0.72,0.75,1.11,1.19s0.73,0.83,1.01,1.17
	L104.35,5.21z M103.21,10.58l-0.97-0.23c0.36-1.01,0.59-2.05,0.69-3.13l0.99,0.13C103.83,8.44,103.59,9.52,103.21,10.58z
	 M104.52,17.7l-1.64-0.21c0.27-0.6,0.51-1.25,0.73-1.93c0.22-0.69,0.41-1.36,0.55-2.02h10.73v-1.01h-11.21v-1.18h12.85v3.3h-10.94
	c-0.14,0.5-0.3,1.02-0.47,1.55C104.94,16.74,104.74,17.24,104.52,17.7z M103.93,6.34l-0.9-0.59c0.63-0.69,1.23-1.38,1.79-2.08
	c0.56-0.7,1.1-1.41,1.62-2.14l0.99,0.5c-0.53,0.76-1.09,1.49-1.67,2.19C105.16,4.94,104.56,5.64,103.93,6.34z M103.91,3.44
	l-0.86-0.59c0.34-0.41,0.63-0.8,0.89-1.18c0.26-0.38,0.51-0.78,0.77-1.2l1.01,0.46c-0.28,0.45-0.56,0.87-0.85,1.26
	C104.58,2.6,104.26,3.01,103.91,3.44z M113.67,19.55c-0.6,0-1.28-0.01-2.05-0.04c-0.76-0.03-1.57-0.07-2.43-0.13l-0.02-1.26
	c0.77,0.06,1.52,0.1,2.24,0.13c0.72,0.03,1.35,0.04,1.88,0.04c0.45,0,0.79-0.03,1.04-0.09c0.24-0.06,0.43-0.2,0.57-0.42
	c0.13-0.22,0.26-0.55,0.39-1h-11.05v-1.11h13.04c-0.14,0.84-0.29,1.52-0.46,2.03c-0.17,0.51-0.38,0.9-0.64,1.18
	c-0.26,0.27-0.59,0.45-0.99,0.55C114.8,19.51,114.29,19.55,113.67,19.55z M104.39,10.77V6.11h1.18v4.66H104.39z M106.45,10.46
	c-0.04-0.5-0.1-1.02-0.18-1.55c-0.08-0.53-0.17-1.06-0.26-1.58l0.97-0.19c0.11,0.52,0.21,1.05,0.28,1.6
	c0.08,0.55,0.14,1.07,0.18,1.57L106.45,10.46z M107.02,7.6c-0.11-0.53-0.25-1.1-0.42-1.7s-0.34-1.14-0.52-1.62l0.86-0.36
	c0.2,0.49,0.38,1.04,0.55,1.65s0.31,1.18,0.42,1.71L107.02,7.6z M107.71,3.57V2.5h4.89v1.07H107.71z M108.07,1.89V0.9h4.2v0.99
	H108.07z M108.07,5.25V4.26h4.2v0.99H108.07z M108.07,6.93V5.94h4.2v0.99H108.07z M108.07,10.71V7.62h4.2v3.09h-3.09V9.68h1.95V8.57
	h-1.95v2.14H108.07z M112.58,6.85l-0.04-1.16l4.91-0.31l0.02,1.18L112.58,6.85z M114.7,5.21c-0.28-0.34-0.62-0.72-1.03-1.15
	c-0.41-0.43-0.78-0.83-1.11-1.18l0.61-1.03c0.35,0.35,0.72,0.75,1.12,1.19s0.74,0.83,1.02,1.17L114.7,5.21z M113.69,10.48
	l-0.99-0.21c0.17-0.49,0.3-0.99,0.4-1.5c0.1-0.51,0.17-1.03,0.21-1.54l0.99,0.13c-0.04,0.52-0.12,1.04-0.22,1.56
	S113.85,9.96,113.69,10.48z M114.28,6.34l-0.9-0.59c0.64-0.69,1.24-1.38,1.8-2.08c0.55-0.7,1.09-1.41,1.61-2.14l0.99,0.5
	c-0.53,0.76-1.09,1.49-1.66,2.19C115.53,4.94,114.93,5.64,114.28,6.34z M114.26,3.44l-0.84-0.59c0.32-0.41,0.61-0.8,0.87-1.18
	c0.26-0.38,0.52-0.78,0.79-1.2l0.97,0.46c-0.28,0.45-0.56,0.87-0.84,1.26C114.93,2.6,114.61,3.01,114.26,3.44z M114.74,10.77V6.11
	h1.2v4.66H114.74z M116.91,10.58c-0.04-0.53-0.11-1.07-0.21-1.63c-0.1-0.55-0.21-1.1-0.34-1.63l0.97-0.19
	c0.13,0.53,0.24,1.08,0.34,1.64c0.1,0.56,0.17,1.11,0.23,1.64L116.91,10.58z M117.37,7.6c-0.1-0.53-0.23-1.1-0.4-1.7
	s-0.34-1.14-0.52-1.62l0.84-0.36c0.2,0.49,0.38,1.04,0.55,1.65s0.3,1.18,0.4,1.71L117.37,7.6z"/>
<path class="st0" d="M120.27,19.61l-0.9-1.16c0.5-0.31,0.95-0.66,1.32-1.05s0.69-0.84,0.94-1.33s0.44-1.05,0.57-1.67
	s0.19-1.29,0.19-2.04l1.43,0.04c0,0.88-0.08,1.69-0.23,2.42c-0.15,0.73-0.38,1.39-0.66,1.97c-0.29,0.59-0.65,1.11-1.1,1.57
	C121.37,18.84,120.85,19.25,120.27,19.61z M119.7,7.35v-1.3h9.07v1.3H119.7z M119.99,3.47V2.12h3.61V0.31h1.6v1.81h3.51v1.34H119.99
	z M125.31,16.88v-3.63h-3.17v-1.28h4.75V9.62h-4.75v3.63h-1.55V8.32h7.9v4.94h-1.66v3.63H125.31z M122.45,6.95
	c-0.24-0.66-0.49-1.31-0.75-1.96c-0.26-0.65-0.54-1.28-0.83-1.9l1.3-0.55c0.31,0.62,0.6,1.26,0.86,1.93
	c0.27,0.67,0.52,1.34,0.76,2.02L122.45,6.95z M123.33,18.44l-0.25-1.39c1.09-0.31,2.14-0.66,3.15-1.06c1.01-0.4,2.04-0.89,3.11-1.46
	l0.25,1.32c-1.05,0.59-2.08,1.09-3.1,1.5C125.48,17.77,124.42,18.13,123.33,18.44z M126.27,7.06l-1.28-0.59
	c0.31-0.57,0.59-1.18,0.85-1.83c0.26-0.64,0.48-1.3,0.66-1.97l1.41,0.4c-0.21,0.71-0.45,1.41-0.72,2.08S126.61,6.45,126.27,7.06z
	 M127.72,19.61l-0.8-1.2c0.77-0.31,1.43-0.65,1.97-1.04c0.55-0.38,1-0.82,1.35-1.31c0.36-0.49,0.62-1.04,0.79-1.65
	s0.25-1.3,0.25-2.07l1.49,0.06c0,0.9-0.1,1.71-0.31,2.45c-0.21,0.74-0.52,1.4-0.93,1.98c-0.41,0.59-0.94,1.11-1.57,1.57
	C129.32,18.88,128.58,19.28,127.72,19.61z M129.38,7.35v-1.3h9.39v1.3H129.38z M129.44,3.47V2.12h3.51V0.31h1.6v1.81h3.93v1.34
	H129.44z M136.23,19.3c-0.11,0-0.24,0-0.38,0c-0.14,0-0.27-0.01-0.4-0.02c-0.41-0.01-0.71-0.06-0.92-0.14
	c-0.21-0.08-0.35-0.21-0.42-0.41c-0.07-0.2-0.1-0.48-0.1-0.86v-4.62h-2.75v-1.28h5.02V9.62h-5.02v3.63h-1.55V8.32h8.19v4.94h-2.35
	v4.03c0,0.28,0.02,0.44,0.07,0.49c0.05,0.05,0.17,0.09,0.37,0.12c0.07,0,0.15,0,0.24,0.01c0.09,0.01,0.17,0.01,0.24,0.01
	c0.08,0,0.17,0,0.25-0.01c0.08-0.01,0.16-0.01,0.23-0.01c0.14-0.01,0.24-0.05,0.31-0.09c0.07-0.05,0.13-0.18,0.18-0.38
	c0.05-0.2,0.08-0.54,0.1-1c0.02-0.46,0.04-1.11,0.07-1.93l1.39,0.13c-0.04,1.08-0.09,1.92-0.15,2.54c-0.06,0.62-0.14,1.07-0.26,1.36
	c-0.12,0.29-0.3,0.49-0.56,0.58c-0.25,0.09-0.59,0.15-1.01,0.18c-0.13,0.01-0.26,0.02-0.39,0.02C136.5,19.3,136.37,19.3,136.23,19.3
	z M131.61,6.95c-0.22-0.66-0.47-1.31-0.72-1.96c-0.26-0.65-0.54-1.28-0.83-1.9l1.34-0.55c0.29,0.62,0.58,1.26,0.85,1.93
	s0.53,1.34,0.77,2.02L131.61,6.95z M135.79,7.06l-1.32-0.59c0.32-0.57,0.61-1.18,0.87-1.83c0.26-0.64,0.48-1.3,0.66-1.97l1.43,0.4
	c-0.21,0.71-0.45,1.41-0.72,2.08S136.12,6.45,135.79,7.06z"/>
<path class="st0" d="M141.46,15.44l-0.88-1.09c0.95-0.62,1.8-1.33,2.54-2.15c0.74-0.82,1.31-1.66,1.7-2.53l1.53,0.29
	c-0.28,0.69-0.66,1.35-1.14,2.01c-0.48,0.65-1.04,1.27-1.67,1.86C142.9,14.41,142.21,14.95,141.46,15.44z M141.2,9.83v-1.2h2.25
	V6.32h-2.67V5.06h2.67V2.02h1.6v3.04h14.64v1.26h-14.64v2.31h10.37V2.75h-2.39v5.88h-1.53V2.75h-2.52v5.88h-1.53V2.75h-3.3V1.53
	h14.7v1.22h-1.83v5.88h2.25v1.2H141.2z M141.88,4.73l-0.95-1.13c0.78-0.53,1.48-1.1,2.09-1.7c0.61-0.6,1.14-1.23,1.59-1.89l1.6,0.27
	c-0.5,0.8-1.12,1.58-1.85,2.33C143.63,3.36,142.8,4.07,141.88,4.73z M142,19.7l-0.84-1.2c1.44-0.38,2.7-0.89,3.77-1.52
	c1.07-0.64,1.92-1.37,2.56-2.21c0.64-0.83,1.03-1.73,1.19-2.68l1.39,0.25c-0.17,1.12-0.6,2.16-1.28,3.12s-1.6,1.8-2.74,2.51
	C144.9,18.69,143.56,19.26,142,19.7z M147.04,16.25c-0.49-0.32-1.03-0.64-1.63-0.97c-0.6-0.32-1.17-0.62-1.71-0.88l0.88-1.01
	c0.57,0.27,1.15,0.56,1.74,0.89c0.59,0.33,1.13,0.65,1.64,0.98L147.04,16.25z M144.35,12.35v-1.18h5.71v1.18H144.35z M155.06,19.53
	v-2.42h-6.15v-1.3h2.33v-2.94h-0.8v-1.26h4.62V9.77h1.64v1.85h2.56v1.26h-6.49v2.94h2.35v-2.94h1.57v2.94h3.23v1.3h-3.23v2.42
	H155.06z"/>
<path class="st0" d="M167.79,17.79c-0.46-0.65-1.13-1.45-1.93-2.29c-0.78,1.3-1.81,2.58-3.19,3.74c-0.27-0.38-0.86-0.94-1.26-1.2
	c1.45-1.18,2.5-2.46,3.23-3.82c-0.92-0.92-1.89-1.85-2.75-2.62c0.38-1.39,0.78-3.23,1.11-5.23l-1.3,0.08l-0.19-1.78
	c0.55-0.02,1.13-0.04,1.78-0.06c0.23-1.53,0.42-3.04,0.52-4.41l1.66,0.06c-0.13,1.32-0.31,2.77-0.52,4.26l1.49-0.08V3.03h1.64v1.3
	l0.86-0.04v1.68l-0.86,0.06c-0.02,2.33-0.25,5.1-1.39,7.81c0.92,0.88,1.72,1.74,2.23,2.44L167.79,17.79z M164.68,6.26
	c-0.29,1.72-0.65,3.38-0.97,4.77c0.55,0.48,1.13,1.01,1.68,1.53c0.84-2.23,1.03-4.49,1.05-6.4L164.68,6.26z M180.85,12.39v1.7h-6.07
	c-0.73,2.48-2.25,4.2-5.58,5.31c-0.21-0.48-0.71-1.22-1.11-1.6c2.69-0.8,3.99-2.02,4.7-3.72h-4.01v-1.7h4.47
	c0.13-0.73,0.21-1.57,0.25-2.46h-3.93V2.1h1.72v6.13h8.4v4.16H180.85z M179.08,7.1h-6.66V1.05h6.66V7.1z M177.36,2.52h-3.3v3.11h3.3
	V2.52z M175.6,14.68c1.68,0.99,4.03,2.41,5.25,3.3l-1.15,1.43c-1.15-0.9-3.51-2.44-5.21-3.46L175.6,14.68z M175.39,9.93
	c-0.04,0.86-0.13,1.7-0.25,2.46h2.94V9.93H175.39z"/>
<path class="st0" d="M185.24,7.69c-0.27-0.39-0.56-0.8-0.88-1.24c-0.32-0.43-0.64-0.86-0.96-1.29s-0.61-0.82-0.87-1.17l0.8-1.18
	c0.42,0.53,0.87,1.13,1.36,1.81c0.49,0.67,0.94,1.31,1.37,1.91L185.24,7.69z M183.18,19.19l-0.59-1.37c2-0.76,3.72-1.55,5.16-2.37
	c1.43-0.83,2.61-1.69,3.54-2.6l0.99,0.8c-0.98,1.04-2.22,2.02-3.73,2.94C187.04,17.51,185.25,18.38,183.18,19.19z M182.87,10.71
	l-0.19-1.3l5.59-0.52l0.19,1.22L182.87,10.71z M191.39,19.53v-6.09h-8.19v-1.41h8.19v-1.37h-0.78V9.35h3.23V6.99h-3.23v-1.3h3.23
	V3.57h-3.23v7.1h-1.49V2.23h6.22v8.44h-2.27v1.37h8.19v1.41h-8.19v6.09H191.39z M184.55,10.21l-1.2-0.46
	c0.8-1.16,1.54-2.36,2.24-3.59s1.35-2.5,1.96-3.8l1.22,0.46c-0.62,1.3-1.28,2.57-1.98,3.8S185.33,9.04,184.55,10.21z M184.65,4.75
	l-1.11-0.5c0.34-0.59,0.65-1.18,0.96-1.79c0.3-0.6,0.59-1.22,0.87-1.85l1.22,0.38c-0.28,0.64-0.58,1.28-0.9,1.91
	C185.36,3.53,185.02,4.14,184.65,4.75z M188.14,11.47c-0.2-0.81-0.42-1.67-0.66-2.58c-0.25-0.91-0.48-1.71-0.7-2.42l1.18-0.34
	c0.22,0.7,0.46,1.51,0.71,2.43s0.48,1.77,0.67,2.57L188.14,11.47z M192.61,3.23l-1.66-0.19c0.15-0.42,0.3-0.85,0.44-1.3
	c0.14-0.45,0.27-0.92,0.4-1.43l1.66,0.13c-0.13,0.52-0.26,1.01-0.4,1.47S192.77,2.81,192.61,3.23z M201.28,19.19
	c-2.06-0.81-3.84-1.68-5.35-2.6c-1.51-0.92-2.76-1.9-3.74-2.94l0.99-0.8c0.92,0.91,2.1,1.78,3.54,2.6c1.44,0.83,3.15,1.62,5.16,2.37
	L201.28,19.19z M198.05,7.69c-0.28-0.39-0.58-0.8-0.89-1.24s-0.63-0.86-0.94-1.29s-0.61-0.82-0.89-1.17l0.82-1.18
	c0.42,0.53,0.88,1.13,1.38,1.81c0.5,0.67,0.95,1.31,1.35,1.91L198.05,7.69z M195.82,10.71l-0.21-1.3l5.61-0.52l0.19,1.22
	L195.82,10.71z M197.36,10.21l-1.18-0.46c0.78-1.16,1.53-2.36,2.23-3.59s1.35-2.5,1.95-3.8l1.22,0.46c-0.62,1.3-1.27,2.57-1.97,3.8
	C198.9,7.85,198.16,9.04,197.36,10.21z M197.46,4.75l-1.11-0.5c0.35-0.6,0.68-1.2,0.98-1.8c0.3-0.6,0.59-1.21,0.87-1.84l1.22,0.38
	c-0.28,0.66-0.58,1.3-0.91,1.92C198.17,3.53,197.83,4.14,197.46,4.75z M200.95,11.47c-0.2-0.81-0.42-1.67-0.66-2.58
	c-0.25-0.91-0.48-1.71-0.7-2.42l1.22-0.34c0.22,0.7,0.46,1.51,0.71,2.43c0.25,0.92,0.48,1.77,0.67,2.57L200.95,11.47z"/>
</svg>
