<?xml version="1.0" encoding="utf-8"?>
<!-- Generator: Adobe Illustrator 25.0.0, SVG Export Plug-In . SVG Version: 6.00 Build 0)  -->
<svg version="1.1" id="圖層_1" xmlns="http://www.w3.org/2000/svg" xmlns:xlink="http://www.w3.org/1999/xlink" x="0px" y="0px"
	 viewBox="0 0 185.6 19.53" style="enable-background:new 0 0 185.6 19.53;" xml:space="preserve">
<style type="text/css">
	.st0{fill:#121212;}
</style>
<path class="st0" d="M0.71,15.62L0,14.39c1.46-0.56,2.77-1.21,3.93-1.96c1.16-0.75,2.14-1.54,2.94-2.36l1.09,0.73
	c-0.56,0.64-1.22,1.26-1.98,1.85s-1.59,1.14-2.48,1.65C2.61,14.8,1.68,15.25,0.71,15.62z M0.5,19.3l-0.38-1.39
	c1.68-0.18,3.23-0.44,4.64-0.79c1.41-0.34,2.71-0.75,3.89-1.21c1.18-0.46,2.22-0.98,3.14-1.56c0.92-0.58,1.71-1.21,2.38-1.88
	l1.07,0.84c-0.9,0.94-2.05,1.81-3.46,2.6c-1.41,0.8-3.07,1.49-4.96,2.07C4.94,18.57,2.83,19,0.5,19.3z M0.38,9.2V5.06h17.77v4.07
	h-1.55V6.32H1.93V9.2H0.38z M1.41,11.76l-0.99-0.99c0.56-0.48,1.07-1,1.53-1.59c0.46-0.58,0.85-1.18,1.16-1.8l1.13,0.73
	c-0.31,0.66-0.71,1.3-1.2,1.93C2.56,10.69,2.01,11.26,1.41,11.76z M1.3,3.17L1.22,1.85c1.5,0,2.98-0.02,4.44-0.07
	C7.12,1.73,8.54,1.66,9.9,1.56c1.36-0.09,2.66-0.21,3.88-0.35s2.36-0.29,3.41-0.44l0.25,1.3C16.05,2.3,14.5,2.5,12.8,2.66
	c-1.7,0.16-3.51,0.29-5.44,0.38C5.44,3.13,3.42,3.17,1.3,3.17z M4.68,6.09C4.42,5.53,4.13,4.98,3.83,4.43
	c-0.3-0.55-0.61-1.06-0.91-1.55l1.39-0.52c0.32,0.5,0.63,1.03,0.93,1.59c0.3,0.55,0.58,1.1,0.85,1.65L4.68,6.09z M18.02,19.3
	c-1.78-0.21-3.5-0.55-5.18-1.01c-1.67-0.46-3.22-1.02-4.65-1.68c-1.43-0.66-2.67-1.38-3.72-2.16l0.95-1.13
	c0.99,0.77,2.15,1.46,3.46,2.08c1.32,0.62,2.77,1.14,4.37,1.58c1.6,0.43,3.31,0.75,5.14,0.94L18.02,19.3z M4.81,13.31v-1.26h10.44
	v1.26H4.81z M9.16,11.13c-0.41,0-0.82-0.01-1.23-0.02c-0.41-0.01-0.79-0.03-1.12-0.04c-0.57-0.03-0.99-0.09-1.26-0.19
	c-0.27-0.1-0.43-0.28-0.5-0.55c-0.07-0.27-0.1-0.67-0.1-1.22V7.14h1.53v1.55c0,0.36,0.01,0.62,0.04,0.78
	c0.03,0.15,0.1,0.25,0.22,0.29c0.12,0.04,0.31,0.07,0.58,0.08c0.25,0.01,0.53,0.02,0.84,0.03c0.31,0.01,0.62,0.01,0.94,0.01
	c0.31,0,0.62,0,0.93-0.01c0.31-0.01,0.61-0.02,0.87-0.03c0.41-0.03,0.72-0.06,0.96-0.09c0.23-0.03,0.4-0.1,0.5-0.2
	c0.1-0.1,0.18-0.26,0.23-0.48c0.05-0.22,0.09-0.54,0.14-0.95l1.49,0.29c-0.06,0.59-0.12,1.06-0.2,1.41
	c-0.08,0.35-0.2,0.61-0.38,0.78c-0.18,0.17-0.43,0.28-0.76,0.34c-0.33,0.06-0.79,0.1-1.38,0.13c-0.34,0.01-0.7,0.03-1.09,0.04
	C10.02,11.12,9.6,11.13,9.16,11.13z M10.69,9.18c-0.53-0.32-1.08-0.63-1.65-0.92C8.47,7.96,7.89,7.68,7.29,7.41l0.67-1.13
	c0.62,0.27,1.22,0.55,1.82,0.86c0.59,0.31,1.14,0.62,1.65,0.92L10.69,9.18z M9.43,6.03c-0.28-0.6-0.57-1.19-0.88-1.75
	c-0.31-0.57-0.61-1.1-0.9-1.61l1.39-0.52c0.31,0.5,0.62,1.05,0.92,1.64c0.31,0.59,0.6,1.18,0.86,1.78L9.43,6.03z M14.07,6.2
	l-1.39-0.55c0.32-0.53,0.62-1.07,0.9-1.63c0.28-0.55,0.53-1.09,0.76-1.61l1.43,0.5c-0.22,0.52-0.48,1.06-0.78,1.63
	C14.7,5.11,14.39,5.66,14.07,6.2z M16.76,11.68c-0.38-0.66-0.8-1.32-1.27-1.97c-0.47-0.66-0.97-1.31-1.5-1.95l1.11-0.82
	c0.53,0.64,1.04,1.3,1.52,1.97c0.48,0.67,0.92,1.33,1.31,1.97L16.76,11.68z"/>
<path class="st0" d="M21.27,19.47l-0.82-1.28c0.6-0.46,1.11-1.04,1.53-1.73s0.74-1.51,0.96-2.45c0.22-0.94,0.33-2,0.33-3.19
	l1.51,0.06c0,1.37-0.14,2.61-0.42,3.72c-0.28,1.11-0.68,2.06-1.2,2.88C22.65,18.28,22.02,18.95,21.27,19.47z M31.04,19.17
	c-1.19,0-2.14-0.02-2.85-0.07c-0.71-0.05-1.24-0.14-1.61-0.26c-0.36-0.13-0.6-0.3-0.71-0.54s-0.17-0.53-0.17-0.89v-6.3h-3.15V9.85
	h2.21V3.72h1.39v6.13h2.18V7.37h-5.77V6.11h5.77V3.72h-5.77v7.39h-1.43V2.37h8.61v8.74h-2.56v5.75c0,0.2,0.02,0.36,0.07,0.48
	s0.19,0.22,0.42,0.27c0.23,0.06,0.61,0.1,1.13,0.13c0.52,0.03,1.27,0.04,2.24,0.04h2.52c0.95,0,1.73-0.01,2.32-0.03
	c0.59-0.02,1.06-0.07,1.41-0.16c0.34-0.08,0.59-0.23,0.75-0.43c0.15-0.2,0.26-0.48,0.31-0.84c0.06-0.36,0.1-0.82,0.13-1.4l1.45,0.13
	c-0.07,0.78-0.15,1.43-0.23,1.94c-0.08,0.51-0.24,0.92-0.46,1.22c-0.22,0.3-0.56,0.52-1,0.65c-0.44,0.13-1.04,0.22-1.8,0.25
	c-0.76,0.03-1.71,0.05-2.88,0.05H31.04z M24.86,3.3l-1.6-0.34c0.32-0.46,0.63-0.94,0.91-1.44c0.29-0.5,0.54-0.97,0.77-1.42l1.6,0.31
	c-0.22,0.46-0.48,0.94-0.77,1.43C25.49,2.34,25.19,2.82,24.86,3.3z M27.01,16.55l-0.1-1.3c0.66-0.07,1.35-0.17,2.08-0.3
	c0.73-0.13,1.45-0.3,2.16-0.49l0.17,1.26c-0.73,0.2-1.46,0.37-2.19,0.51S27.68,16.48,27.01,16.55z M28.5,15.9l-1.13-0.25
	c0.22-0.64,0.44-1.34,0.65-2.1c0.21-0.76,0.38-1.52,0.52-2.29l1.26,0.08c-0.15,0.81-0.35,1.61-0.58,2.4S28.75,15.25,28.5,15.9z
	 M31.25,16.55c-0.17-0.57-0.38-1.17-0.63-1.79c-0.25-0.62-0.51-1.18-0.78-1.7l1.11-0.36c0.25,0.52,0.5,1.08,0.76,1.7
	c0.25,0.62,0.47,1.2,0.65,1.76L31.25,16.55z M31.44,13.36l-1.05-1.03c0.94-0.85,1.73-1.71,2.37-2.57c0.64-0.86,1.18-1.77,1.6-2.72
	l0.97,0.31c-0.41,1.09-0.93,2.13-1.56,3.11C33.12,11.44,32.35,12.4,31.44,13.36z M34.29,16.78V8.08h-3.78v-1.3h3.74V3.95h-3.53v-1.3
	h3.53V0.44h1.57v2.21h3.78v1.3h-3.78v2.83h3.99v1.3h-4.03v8.69H34.29z M39.21,14.22c-1.01-1.05-1.85-2.12-2.54-3.2
	s-1.25-2.24-1.7-3.48l1.03-0.34c0.43,1.04,0.99,2.03,1.67,2.97c0.68,0.94,1.5,1.88,2.47,2.8L39.21,14.22z"/>
<path class="st0" d="M42.11,13.71l-0.34-1.47c1.62-0.35,3.08-0.71,4.36-1.07c1.28-0.36,2.43-0.75,3.44-1.16
	c1.01-0.41,1.92-0.84,2.71-1.29c0.79-0.45,1.5-0.95,2.13-1.48c0.63-0.53,1.2-1.11,1.72-1.72l1.49,0.63
	C56.85,7.02,56,7.82,55.05,8.55s-2.03,1.4-3.25,2.01c-1.23,0.61-2.63,1.17-4.22,1.69C45.99,12.76,44.16,13.25,42.11,13.71z
	 M42.61,9.6l-0.69-1.3c1.37-0.67,2.6-1.42,3.7-2.26c1.09-0.83,2-1.73,2.73-2.7l1.79,0.17c-0.53,0.78-1.18,1.54-1.94,2.27
	c-0.76,0.73-1.61,1.41-2.55,2.06C44.7,8.48,43.69,9.07,42.61,9.6z M42.17,6.34V2.1h8.25V0h1.68v2.1h8.25v4.24h-1.6V3.4H43.76v2.94
	H42.17z M44.6,19.53v-7.01h13.31v7.01h-1.64v-0.95H46.24v-1.3h10.04v-3.46H46.24v5.71H44.6z M60.56,13.67
	c-1.92-0.45-3.63-0.91-5.15-1.39c-1.51-0.48-2.86-0.98-4.05-1.51c-1.19-0.53-2.26-1.1-3.2-1.69c-0.94-0.59-1.8-1.24-2.57-1.94
	l1.24-0.88c0.53,0.5,1.11,0.98,1.74,1.43c0.63,0.45,1.34,0.87,2.13,1.27s1.68,0.78,2.68,1.16c0.99,0.37,2.11,0.73,3.36,1.08
	s2.65,0.7,4.2,1.05L60.56,13.67z M47.08,6.15V4.89h10.54v1.26H47.08z"/>
<path class="st0" d="M63.67,19.47l-1.28-1.05c0.24-0.57,0.44-1.17,0.61-1.77c0.17-0.61,0.3-1.28,0.41-2.02
	c0.1-0.73,0.18-1.57,0.23-2.5c0.05-0.93,0.07-2.01,0.07-3.22V1.28h5.71v15.35c0,0.62-0.01,1.1-0.04,1.45
	c-0.03,0.35-0.09,0.61-0.2,0.78c-0.1,0.17-0.26,0.28-0.45,0.34c-0.2,0.06-0.46,0.08-0.8,0.08c-0.21,0-0.51-0.01-0.91-0.03
	c-0.4-0.02-0.86-0.05-1.4-0.07l-0.08-1.43c0.46,0.03,0.83,0.05,1.11,0.07c0.28,0.02,0.5,0.03,0.67,0.03c0.21,0,0.36-0.02,0.45-0.05
	c0.09-0.04,0.14-0.14,0.16-0.3s0.02-0.45,0.02-0.86v-3.76h-3.46v-1.36h3.46V7.67h-2.77V6.28h2.77V2.69h-2.77v6.93
	c0,1.57-0.05,2.95-0.16,4.15s-0.27,2.25-0.49,3.17C64.31,17.85,64.02,18.7,63.67,19.47z M70.16,19.22l-0.61-1.37
	c1.71-0.55,3.2-1.19,4.48-1.93c1.28-0.74,2.37-1.61,3.28-2.59c0.9-0.99,1.66-2.11,2.26-3.37l1.3,0.8c-0.64,1.33-1.44,2.52-2.39,3.56
	c-0.95,1.04-2.1,1.96-3.45,2.76C73.67,17.87,72.05,18.58,70.16,19.22z M70.75,8.9l-0.97-1.18c0.59-0.35,1.05-0.73,1.4-1.15
	c0.34-0.42,0.59-0.95,0.75-1.6c0.15-0.64,0.23-1.46,0.23-2.44V1.32h6.76v5.29c0,0.18,0.02,0.29,0.06,0.33
	c0.04,0.04,0.19,0.05,0.44,0.05c0.32,0,0.57-0.02,0.73-0.05c0.17-0.03,0.3-0.13,0.39-0.27c0.09-0.15,0.16-0.39,0.2-0.73
	c0.04-0.34,0.08-0.83,0.13-1.46l1.41,0.15c-0.06,0.73-0.11,1.33-0.17,1.8c-0.06,0.47-0.15,0.83-0.27,1.09
	c-0.13,0.26-0.3,0.45-0.54,0.58s-0.55,0.2-0.94,0.23c-0.4,0.03-0.91,0.04-1.52,0.04c-0.42,0-0.74-0.02-0.96-0.07
	c-0.22-0.05-0.36-0.15-0.43-0.3c-0.07-0.15-0.1-0.38-0.1-0.67V2.69h-3.65v0.46c0,1.44-0.25,2.63-0.75,3.57
	C72.45,7.66,71.72,8.39,70.75,8.9z M70.22,10.75V9.35h10.65v1.41H70.22z M81.48,19.22c-1.41-0.52-2.76-1.15-4.03-1.89
	c-1.27-0.74-2.43-1.56-3.45-2.47c-1.03-0.9-1.91-1.84-2.64-2.82l1.24-0.84c0.64,0.88,1.44,1.73,2.39,2.55s2.02,1.58,3.21,2.29
	s2.47,1.33,3.84,1.86L81.48,19.22z"/>
<path class="st0" d="M89.98,0.74c-0.57,1.47-1.28,2.98-2.08,4.39v14.21h-1.91V8.13c-0.57,0.78-1.15,1.49-1.74,2.1
	c-0.19-0.46-0.76-1.51-1.07-1.97c1.97-1.95,3.84-5.02,4.98-8.06L89.98,0.74z M100.61,8.57c0,0,0,0.57-0.02,0.82
	c-0.27,6.03-0.5,8.25-1.13,8.99c-0.38,0.5-0.8,0.67-1.36,0.73c-0.55,0.08-1.43,0.08-2.35,0.04c-0.04-0.52-0.23-1.28-0.55-1.78
	c0.84,0.08,1.57,0.1,1.91,0.1c0.31,0,0.5-0.04,0.69-0.29c0.36-0.44,0.63-2.2,0.84-6.8h-3.19c-0.55,4.33-1.97,7.16-5.02,8.92
	c-0.25-0.4-0.92-1.13-1.34-1.45c2.79-1.41,4.01-3.84,4.43-7.47h-2.18V8.57H100.61z M94.85,1.56c-0.9,3.11-2.5,5.94-4.49,7.77
	c-0.23-0.42-0.86-1.34-1.24-1.74c1.74-1.49,3.09-3.88,3.8-6.51L94.85,1.56z M99.14,0.78c0.61,2.69,1.99,5.27,3.8,6.59
	c-0.4,0.46-0.97,1.41-1.24,2.02c-1.78-1.6-3.23-4.16-4.03-6.74h-2.18V0.78H99.14z"/>
<path class="st0" d="M105.08,12.22l-0.71-1.45c1.3-0.94,2.42-1.91,3.36-2.93c0.94-1.02,1.73-2.14,2.38-3.38
	c0.65-1.24,1.21-2.64,1.67-4.19l1.68,0.15c-0.46,1.68-1.07,3.22-1.82,4.62c-0.75,1.4-1.66,2.68-2.74,3.85
	C107.83,10.06,106.55,11.17,105.08,12.22z M104.96,3.72V2.33h18.61v1.39H104.96z M108.59,19.24V7.22h1.68v6.64h10.08v-2.6h-10.08V10
	h10.08V7.5h-10.4V6.15h12.08v10.71c0,0.52-0.03,0.93-0.08,1.24c-0.06,0.31-0.17,0.54-0.34,0.69c-0.17,0.15-0.42,0.26-0.77,0.3
	c-0.34,0.05-0.8,0.07-1.38,0.07c-0.25,0-0.61-0.01-1.07-0.02c-0.46-0.01-1.12-0.04-1.97-0.08l-0.02-1.37
	c0.76,0.03,1.35,0.05,1.78,0.07s0.78,0.03,1.03,0.03c0.38,0,0.65-0.01,0.81-0.02c0.16-0.01,0.26-0.07,0.28-0.16
	c0.03-0.09,0.04-0.24,0.04-0.45v-2.06h-10.08v4.12H108.59z"/>
<path class="st0" d="M126.69,19.38V1.32h6.36v1.3h-4.83v16.76H126.69z M129.07,15.33l-0.25-1.34h0.63c0.59,0,1-0.12,1.23-0.37
	c0.23-0.24,0.35-0.72,0.35-1.42c0-0.49-0.06-0.94-0.17-1.37c-0.11-0.42-0.31-0.86-0.59-1.31c-0.28-0.45-0.68-0.99-1.2-1.61
	c0.32-0.52,0.64-1.08,0.94-1.7c0.31-0.62,0.6-1.24,0.88-1.88c0.28-0.64,0.52-1.24,0.71-1.82l1.45,0.1c-0.18,0.55-0.4,1.13-0.66,1.74
	c-0.26,0.62-0.54,1.22-0.83,1.82c-0.29,0.6-0.59,1.14-0.88,1.65c0.45,0.57,0.81,1.11,1.07,1.61c0.27,0.5,0.45,0.99,0.57,1.48
	c0.11,0.49,0.17,1.03,0.17,1.62c0,0.98-0.23,1.69-0.68,2.13c-0.46,0.44-1.16,0.66-2.11,0.66H129.07z M131.52,19.28l-0.13-1.41
	c1.39-0.17,2.74-0.38,4.05-0.63s2.67-0.56,4.05-0.92l0.27,1.39c-1.44,0.38-2.83,0.69-4.18,0.94
	C134.25,18.9,132.9,19.11,131.52,19.28z M133.73,18.29V1.41h10.14v9.3h-8.57V9.37h6.95V6.68h-6.95V5.27h6.95V2.75h-6.95v15.54
	H133.73z M144.33,19.3c-1.08-0.52-2.07-1.22-2.98-2.1c-0.91-0.88-1.69-1.9-2.35-3.07s-1.17-2.44-1.53-3.84l1.47-0.29
	c0.32,1.22,0.77,2.34,1.33,3.36c0.57,1.02,1.26,1.93,2.09,2.71c0.83,0.78,1.76,1.44,2.79,1.97L144.33,19.3z M140.91,15.58
	l-0.94-1.07c0.69-0.49,1.37-1.05,2.06-1.68c0.69-0.63,1.32-1.29,1.91-2l0.99,0.97c-0.6,0.73-1.25,1.42-1.93,2.07
	C142.3,14.52,141.61,15.09,140.91,15.58z"/>
<path class="st0" d="M147.78,10.42l-1.11-1.15c1.33-1.09,2.52-2.28,3.57-3.56c1.05-1.28,1.95-2.66,2.69-4.13l1.47,0.55
	c-0.76,1.57-1.69,3.05-2.79,4.44C150.49,7.96,149.22,9.24,147.78,10.42z M147.59,18.75l-0.08-1.45c2.56-0.08,5.23-0.25,7.99-0.5
	c2.76-0.25,5.52-0.57,8.26-0.95l0.25,1.37c-2.79,0.41-5.58,0.74-8.37,1.01S150.16,18.67,147.59,18.75z M152.02,18.19l-1.51-0.67
	c0.67-1.53,1.33-3.19,1.96-4.98c0.64-1.79,1.22-3.62,1.75-5.48l1.62,0.46c-0.56,1.93-1.16,3.8-1.81,5.6S152.72,16.6,152.02,18.19z
	 M164.75,10.42c-1.43-1.18-2.7-2.46-3.81-3.85c-1.11-1.39-2.05-2.87-2.8-4.44l1.47-0.55c0.74,1.47,1.64,2.85,2.69,4.13
	c1.05,1.28,2.24,2.47,3.57,3.56L164.75,10.42z M164.2,19.38c-0.45-0.8-0.94-1.66-1.49-2.58c-0.55-0.92-1.11-1.84-1.69-2.76
	c-0.58-0.92-1.14-1.77-1.67-2.55l1.39-0.65c0.55,0.78,1.11,1.63,1.7,2.55c0.59,0.92,1.16,1.84,1.7,2.76
	c0.55,0.92,1.04,1.79,1.49,2.6L164.2,19.38z"/>
<path class="st0" d="M182.95,19.11c-0.31,0-0.73-0.01-1.27-0.03s-1.24-0.05-2.09-0.07l-0.04-1.43c0.83,0.03,1.5,0.05,2.03,0.06
	c0.52,0.01,0.91,0.02,1.14,0.02c0.39,0,0.67-0.02,0.84-0.06s0.28-0.15,0.33-0.31c0.05-0.17,0.07-0.45,0.07-0.84V2.86h-15.52V1.47
	h17.16v14.97c0,0.6-0.03,1.08-0.08,1.44c-0.06,0.36-0.17,0.62-0.35,0.8c-0.18,0.17-0.44,0.29-0.8,0.35
	C184.01,19.08,183.54,19.11,182.95,19.11z M169.43,6.57V5.25h12.56v1.32H169.43z M170.54,17.89V9.03h10.19v7.18h-8.57v-1.26h6.99
	v-4.66h-6.99v7.6H170.54z"/>
</svg>
