<?xml version="1.0" encoding="utf-8"?>
<!-- Generator: Adobe Illustrator 25.0.0, SVG Export Plug-In . SVG Version: 6.00 Build 0)  -->
<svg version="1.1" id="圖層_1" xmlns="http://www.w3.org/2000/svg" xmlns:xlink="http://www.w3.org/1999/xlink" x="0px" y="0px"
	 viewBox="0 0 165.1 19.36" style="enable-background:new 0 0 165.1 19.36;" xml:space="preserve">
<style type="text/css">
	.st0{fill:#121212;}
</style>
<path class="st0" d="M0,19.26V1.05h5.98v1.3H1.53v16.91H0z M2.16,15.06l-0.25-1.34h0.57c0.57,0,0.98-0.12,1.22-0.37
	c0.24-0.24,0.36-0.72,0.36-1.42c0-0.49-0.05-0.94-0.16-1.37C3.79,10.14,3.6,9.7,3.32,9.24C3.04,8.78,2.63,8.25,2.1,7.64
	c0.29-0.53,0.58-1.11,0.87-1.72C3.26,5.31,3.53,4.68,3.8,4.05c0.27-0.63,0.5-1.23,0.69-1.81l1.49,0.1C5.82,2.9,5.61,3.48,5.37,4.1
	C5.12,4.71,4.86,5.31,4.58,5.9C4.3,6.49,4.02,7.04,3.74,7.56c0.43,0.55,0.78,1.07,1.04,1.56c0.26,0.5,0.44,1,0.56,1.5
	c0.11,0.5,0.17,1.05,0.17,1.64c0,0.99-0.22,1.71-0.66,2.14s-1.14,0.65-2.09,0.65H2.16z M5.1,18.54l-0.69-1.39
	c1.6-0.87,2.93-1.74,4.01-2.62c1.08-0.88,1.91-1.76,2.5-2.62l0.97,0.73c-0.66,1.05-1.55,2.07-2.68,3.07
	C8.08,16.7,6.71,17.65,5.1,18.54z M11.34,19.19v-6.7H7.62v-1.22h3.72V9.16H7.62V8.02h3.72V6.03H7.62v6.47H6.09V4.79h5.25V3.47H5.31
	V2.12h6.03V0.27h1.6v1.85h5.78v1.34h-5.78v1.32h5.25v7.71h-1.55V6.03h-3.7v1.99h3.7v1.13h-3.7v2.12h3.7v1.22h-3.7v6.7H11.34z
	 M18.4,18.54c-1.29-0.81-2.43-1.72-3.41-2.72c-0.99-1-1.88-2.13-2.68-3.39l1.05-0.61c0.73,1.08,1.55,2.05,2.48,2.92
	c0.92,0.87,2.02,1.67,3.28,2.42L18.4,18.54z"/>
<path class="st0" d="M20.6,11.87l-0.69-1.76c0.66-0.9,1.24-1.85,1.75-2.86c0.51-1.01,0.96-2.08,1.34-3.21
	c0.38-1.13,0.7-2.34,0.96-3.61l1.55,0.27C25.29,1.91,25,3.07,24.65,4.17c-0.35,1.1-0.76,2.12-1.22,3.06l-0.04-0.25
	c-0.17,0.42-0.36,0.85-0.57,1.29s-0.44,0.88-0.69,1.3c-0.25,0.43-0.51,0.84-0.77,1.23C21.11,11.19,20.85,11.54,20.6,11.87z
	 M22.39,19.26V5.86h1.58v13.4H22.39z M33.39,19.26v-2.31h-8.86v-1.37h2.62v-1.76h-1.72v-1.28h13.86v1.28H28.73v1.76h4.66v-4.24
	h-5.15v-1.2h8.84V8.32h-8.84v3.02h-1.62v-4.2H38.7v4.2h-3.63v4.24h4.83v1.37h-4.83v2.31H33.39z M24.84,6.15V4.83H36.6V3.09H26.46
	V1.74h11.78v3.09h1.55v1.32H24.84z M31.27,5.5l-1.62-0.15c0.27-0.76,0.52-1.56,0.78-2.4c0.25-0.85,0.49-1.75,0.71-2.7l1.64,0.13
	c-0.22,0.95-0.46,1.86-0.71,2.72S31.55,4.76,31.27,5.5z"/>
<path class="st0" d="M41.92,4.6V3.11h8.34V0h1.68v3.11h8.34V4.6H41.92z M42.42,18.75l-0.48-1.43c1.65-0.5,3.1-1.04,4.36-1.6
	c1.25-0.56,2.36-1.19,3.33-1.9c0.97-0.71,1.81-1.52,2.53-2.44c0.72-0.92,1.37-1.97,1.94-3.17c0.57-1.2,1.11-2.57,1.6-4.11l1.7,0.19
	c-0.53,1.68-1.11,3.17-1.74,4.48c-0.63,1.31-1.34,2.47-2.14,3.49s-1.72,1.91-2.77,2.69c-1.05,0.78-2.26,1.47-3.62,2.09
	S44.18,18.23,42.42,18.75z M59.77,18.75c-2.09-0.62-3.9-1.3-5.45-2.06c-1.55-0.76-2.88-1.63-3.99-2.62
	c-1.11-0.99-2.08-2.16-2.89-3.49c-0.81-1.33-1.53-2.88-2.16-4.66l1.53-0.44c0.46,1.32,0.97,2.49,1.53,3.53
	c0.56,1.04,1.2,1.96,1.92,2.78c0.72,0.82,1.55,1.56,2.5,2.22s2.03,1.26,3.27,1.8s2.64,1.05,4.22,1.52L59.77,18.75z"/>
<path class="st0" d="M62.94,11.95l-0.71-1.16c1.43-0.7,2.79-1.56,4.07-2.59c1.29-1.03,2.46-2.16,3.52-3.4
	c1.06-1.24,1.93-2.52,2.61-3.85l1.3,0.52c-0.53,1.08-1.18,2.13-1.94,3.15c-0.76,1.02-1.61,1.99-2.55,2.9
	c-0.94,0.91-1.94,1.74-3.01,2.5C65.15,10.77,64.06,11.42,62.94,11.95z M62.37,7.25V5.88h4.07V3.17H63.1V1.89h3.34V0.17h1.6v1.72h2.9
	v1.28h-2.9v2.71h4.58v1.36H62.37z M62.52,14.76l-0.08-1.32c2.27-0.07,4.35-0.16,6.25-0.26s3.48-0.23,4.74-0.37l0.06,1.28
	c-1.26,0.14-2.84,0.27-4.75,0.4C66.83,14.62,64.76,14.71,62.52,14.76z M66.78,18.86c-0.31,0-0.66-0.01-1.06-0.03
	s-0.86-0.05-1.38-0.07l-0.04-1.34c0.48,0.03,0.91,0.05,1.29,0.07c0.38,0.02,0.7,0.03,0.96,0.03c0.27,0,0.45-0.02,0.56-0.06
	s0.17-0.15,0.2-0.31c0.03-0.17,0.04-0.46,0.04-0.86v-4.2h1.62v4.35c0,0.53-0.02,0.96-0.07,1.29c-0.05,0.33-0.15,0.58-0.29,0.75
	s-0.36,0.28-0.65,0.33C67.66,18.83,67.27,18.86,66.78,18.86z M65.04,10.58v-1.3h6.68v1.3H65.04z M68.54,13.36l-0.88-1.01
	c0.6-0.39,1.15-0.8,1.64-1.23c0.49-0.43,0.98-0.92,1.47-1.48l0.95,0.94c-0.5,0.56-1,1.06-1.5,1.5
	C69.72,12.53,69.16,12.95,68.54,13.36z M71.97,18.92l-0.78-1.24c1.43-0.66,2.64-1.38,3.62-2.16c0.99-0.78,1.8-1.68,2.45-2.7
	c0.64-1.02,1.15-2.22,1.51-3.6c0.36-1.39,0.64-3.02,0.82-4.89l1.47,0.06c-0.2,2.03-0.49,3.8-0.89,5.31
	c-0.4,1.51-0.95,2.82-1.65,3.94s-1.59,2.09-2.66,2.94C74.79,17.43,73.49,18.21,71.97,18.92z M72.93,10.42l-1.2-0.99
	c0.69-1.2,1.31-2.59,1.87-4.16c0.56-1.57,1.03-3.26,1.41-5.08l1.47,0.19c-0.22,1.19-0.51,2.38-0.86,3.58
	c-0.35,1.2-0.75,2.34-1.21,3.43C73.96,8.48,73.46,9.49,72.93,10.42z M81.31,18.92c-1.08-0.69-2.02-1.43-2.81-2.23
	c-0.8-0.8-1.47-1.69-2.03-2.69c-0.55-0.99-1-2.13-1.35-3.41c-0.35-1.28-0.62-2.74-0.8-4.38l1.53-0.25c0.17,1.57,0.4,2.95,0.7,4.14
	c0.3,1.19,0.69,2.24,1.18,3.14c0.48,0.9,1.08,1.71,1.78,2.43c0.71,0.71,1.54,1.38,2.51,2L81.31,18.92z M74.57,4.68V3.26h7.48v1.43
	H74.57z"/>
<path class="st0" d="M84.08,15.54l-0.92-1.3c0.92-1.4,1.66-2.75,2.22-4.06c0.55-1.31,0.96-2.64,1.23-3.98l0.88,0.63
	c-0.32,1.75-0.77,3.33-1.33,4.75S84.9,14.31,84.08,15.54z M86.54,19.26V7.29h-2.9V5.92h2.9V1.93h1.51v3.99h2.83v1.36h-2.83v11.97
	H86.54z M83.94,3.11l-0.15-1.32c0.78-0.07,1.58-0.16,2.38-0.27c0.8-0.11,1.61-0.25,2.43-0.41c0.81-0.16,1.62-0.34,2.44-0.54
	l0.38,1.26c-0.74,0.2-1.52,0.38-2.32,0.55c-0.81,0.17-1.64,0.31-2.5,0.43C85.73,2.92,84.85,3.02,83.94,3.11z M89.96,12.73
	c-0.43-0.9-0.9-1.82-1.39-2.78s-1.01-1.95-1.55-2.97l0.99-0.71c0.59,1.05,1.14,2.05,1.66,3c0.52,0.95,1.01,1.85,1.47,2.69
	L89.96,12.73z M90.11,15.56l-0.17-1.43l13-2.12l0.15,1.43L90.11,15.56z M95.72,11.82c-0.59-0.67-1.24-1.37-1.94-2.08
	c-0.71-0.71-1.45-1.43-2.24-2.14l1.09-1.05c0.78,0.71,1.54,1.43,2.26,2.14c0.72,0.71,1.38,1.4,1.96,2.06L95.72,11.82z M97.31,6.74
	c-0.56-0.64-1.16-1.29-1.81-1.95c-0.64-0.66-1.34-1.32-2.1-2l1.11-1.03c0.74,0.66,1.44,1.31,2.09,1.96
	c0.65,0.65,1.26,1.31,1.84,1.96L97.31,6.74z M99.27,19.26V0.48h1.6v18.77H99.27z"/>
<path class="st0" d="M104.73,13.46l-0.15-1.45c0.73-0.17,1.45-0.35,2.17-0.56c0.72-0.2,1.43-0.43,2.12-0.68
	c0.69-0.25,1.35-0.52,1.98-0.8l0.27,1.39c-0.64,0.28-1.33,0.55-2.05,0.81c-0.72,0.26-1.45,0.5-2.19,0.72
	C106.15,13.12,105.43,13.31,104.73,13.46z M106.83,18.96c-0.21,0-0.48-0.01-0.81-0.02c-0.33-0.01-0.73-0.04-1.21-0.08l-0.04-1.34
	c0.45,0.03,0.83,0.05,1.14,0.06c0.32,0.01,0.56,0.02,0.75,0.02c0.18,0,0.31-0.02,0.38-0.05c0.07-0.04,0.11-0.14,0.13-0.3
	s0.02-0.45,0.02-0.86V5.56h-2.56V4.18h2.56v-3.7h1.6v3.7h2.23v1.39h-2.23v10.75c0,0.6-0.02,1.08-0.05,1.43
	c-0.03,0.35-0.12,0.62-0.25,0.8c-0.13,0.18-0.33,0.3-0.59,0.35C107.63,18.94,107.27,18.96,106.83,18.96z M110.35,18.96l-0.61-1.39
	c3.02-0.8,5.5-1.98,7.43-3.54c1.93-1.56,3.36-3.48,4.28-5.74l1.49,0.48c-0.7,1.67-1.61,3.14-2.73,4.42
	c-1.12,1.28-2.49,2.4-4.11,3.35C114.5,17.5,112.58,18.31,110.35,18.96z M110.67,8.78V7.41h5.56V4.22h-5.77V2.83h5.77V0.27h1.68v2.56
	h5.71v1.39h-5.71v3.19h5.04v1.37H110.67z M123.25,18.96c-1.67-0.57-3.23-1.3-4.68-2.18c-1.46-0.88-2.75-1.9-3.9-3.04
	c-1.14-1.15-2.1-2.39-2.87-3.72l1.43-0.63c0.69,1.18,1.55,2.29,2.59,3.33s2.24,1.97,3.58,2.79c1.34,0.82,2.8,1.51,4.37,2.07
	L123.25,18.96z"/>
<path class="st0" d="M126.19,7.35l-0.92-1.51c0.77-0.88,1.44-1.79,2-2.73c0.56-0.94,1.02-1.9,1.37-2.88l1.51,0.27
	c-0.15,0.49-0.34,0.98-0.56,1.46c-0.22,0.48-0.47,0.97-0.75,1.46l-0.17,0.04c-0.39,0.77-0.8,1.48-1.22,2.12
	C127.03,6.23,126.61,6.82,126.19,7.35z M125.98,18.65l-0.46-1.45c2.07-0.6,3.86-1.22,5.35-1.86s2.74-1.31,3.72-2.01l0.57,0.95
	c-1.02,0.8-2.29,1.56-3.8,2.29C129.84,17.3,128.05,17.99,125.98,18.65z M134.25,19.26v-5.19h-8.44v-1.32h8.44v-1.26h-6.66V2.83h1.62
	v2.14h13.33v1.13h-13.33v1.51h13.33V8.8h-13.33v1.49h5.44V3.47h-6.22V2.12h14.74v1.34h-6.85v6.82h6.85v1.2h-7.25v1.26h8.23v1.32
	h-8.23v5.19H134.25z M136.08,3.09l-1.55-0.25c0.24-0.43,0.44-0.85,0.62-1.26c0.17-0.41,0.36-0.85,0.56-1.34l1.6,0.21
	c-0.2,0.5-0.39,0.96-0.58,1.38S136.32,2.65,136.08,3.09z M144.21,18.65c-2.06-0.66-3.85-1.35-5.37-2.08s-2.79-1.49-3.81-2.29
	l0.57-0.95c0.99,0.7,2.24,1.37,3.73,2.01c1.49,0.64,3.27,1.26,5.34,1.86L144.21,18.65z"/>
<path class="st0" d="M147.08,19.36V0.88h18.02v18.48h-1.6V18.4h-14.83v-1.28h14.83V2.21h-14.83v17.16H147.08z M155.29,11.13V9.7
	h-3.34V8.78h8.27V7.75h-8.27V7.04h8.27V6.03h-3.4v2.75h-1.47V6.03h-3.4V9.7h-1.49V5.1h4.83V4.35h-5.92V3.17h5.92v-0.9h1.6v0.9h5.92
	v1.18h-5.92V5.1h4.83v4.6h-4.83v1.43H155.29z M158.82,16.53c-0.24,0-0.62-0.01-1.13-0.03c-0.52-0.02-1.11-0.05-1.79-0.07l-0.02-1.18
	c0.53,0.03,1.01,0.06,1.44,0.08c0.43,0.03,0.72,0.04,0.87,0.04c0.28,0,0.48-0.01,0.6-0.03c0.12-0.02,0.19-0.09,0.21-0.2
	c0.02-0.11,0.03-0.29,0.03-0.55v-0.9h-9.66v-1.13h9.66v-1.53h1.58v1.53h2.21v1.13h-2.21v1.11c0,0.52-0.04,0.9-0.1,1.14
	c-0.07,0.25-0.23,0.4-0.48,0.47C159.77,16.49,159.37,16.53,158.82,16.53z M149.58,11.76l-0.04-1.01c1.75-0.04,3.63-0.1,5.63-0.19
	c2-0.08,4.02-0.2,6.05-0.34l0.06,0.92c-2.06,0.17-4.08,0.3-6.07,0.4C153.22,11.65,151.35,11.72,149.58,11.76z M154.5,16.49
	c-0.43-0.32-0.92-0.66-1.45-1.01c-0.53-0.35-1.07-0.66-1.62-0.94l0.74-0.94c0.56,0.29,1.11,0.61,1.64,0.94
	c0.53,0.34,1.02,0.67,1.45,0.99L154.5,16.49z M162.04,12.24c-0.39-0.42-0.85-0.88-1.36-1.39c-0.52-0.5-0.99-0.95-1.43-1.34
	l1.01-0.82c0.45,0.39,0.93,0.84,1.45,1.34s0.97,0.97,1.37,1.39L162.04,12.24z"/>
</svg>
