<?xml version="1.0" encoding="utf-8"?>
<!-- Generator: Adobe Illustrator 25.0.0, SVG Export Plug-In . SVG Version: 6.00 Build 0)  -->
<svg version="1.1" id="圖層_1" xmlns="http://www.w3.org/2000/svg" xmlns:xlink="http://www.w3.org/1999/xlink" x="0px" y="0px"
	 viewBox="0 0 204.77 22.47" style="enable-background:new 0 0 204.77 22.47;" xml:space="preserve">
<style type="text/css">
	.st0{fill:#121212;}
</style>
<path class="st0" d="M8.21,17.85c-1.71,0-3.17-0.31-4.4-0.94c-1.23-0.63-2.17-1.54-2.82-2.72C0.33,13,0,11.6,0,9.97
	c0-1.64,0.33-3.04,0.99-4.22c0.66-1.18,1.59-2.08,2.8-2.71C5,2.41,6.45,2.1,8.13,2.1c0.92,0,1.8,0.1,2.62,0.3S12.33,2.92,13,3.34
	l-0.44,1.45c-0.62-0.38-1.31-0.66-2.07-0.86c-0.76-0.2-1.55-0.29-2.36-0.29c-1.32,0-2.45,0.25-3.39,0.76
	c-0.95,0.5-1.67,1.23-2.18,2.17C2.04,7.5,1.79,8.64,1.79,9.97s0.26,2.47,0.77,3.41c0.51,0.94,1.25,1.67,2.21,2.17
	c0.96,0.5,2.11,0.76,3.45,0.76c0.74,0,1.48-0.08,2.22-0.23c0.73-0.15,1.38-0.37,1.92-0.65l-0.31,0.65v-5.65H6.3V8.98h7.41v7.69
	c-0.73,0.36-1.58,0.65-2.56,0.86C10.17,17.74,9.19,17.85,8.21,17.85z"/>
<path class="st0" d="M17.16,17.64V6.72h1.62v2.27h0.04c0.32-0.5,0.74-0.94,1.24-1.31s1.08-0.66,1.72-0.86
	c0.64-0.2,1.32-0.3,2.04-0.3v1.47c-0.92,0-1.76,0.19-2.52,0.57c-0.76,0.38-1.35,0.88-1.8,1.51s-0.66,1.34-0.66,2.12v5.46H17.16z"/>
<path class="st0" d="M28.25,17.85c-1.09,0-1.96-0.3-2.6-0.89c-0.64-0.59-0.97-1.4-0.97-2.4c0-1.27,0.51-2.25,1.53-2.92
	c1.02-0.67,2.48-1.01,4.39-1.01h1.72c0-0.98-0.22-1.68-0.67-2.1c-0.45-0.42-1.21-0.63-2.29-0.63c-0.74,0-1.43,0.09-2.07,0.27
	c-0.64,0.18-1.28,0.46-1.92,0.84L25.1,7.6c0.67-0.38,1.37-0.65,2.1-0.83c0.73-0.17,1.51-0.26,2.35-0.26c1.06,0,1.92,0.14,2.58,0.42
	c0.66,0.28,1.13,0.73,1.43,1.36C33.85,8.92,34,9.75,34,10.77v6.87h-1.6l-0.02-1.47h-0.04c-0.36,0.49-0.93,0.89-1.7,1.21
	C29.87,17.69,29.07,17.85,28.25,17.85z M28.81,16.46c0.64,0,1.23-0.12,1.76-0.37c0.53-0.24,0.96-0.58,1.27-1.01
	c0.31-0.43,0.47-0.9,0.47-1.42v-1.74h-1.51c-1.48,0-2.6,0.21-3.35,0.63c-0.75,0.42-1.12,1.03-1.12,1.83c0,0.64,0.21,1.15,0.64,1.52
	C27.4,16.28,28.01,16.46,28.81,16.46z"/>
<path class="st0" d="M39.61,17.64L35.49,6.72h1.81l3.46,9.7h0.04l3.46-9.7h1.81l-4.12,10.92H39.61z"/>
<path class="st0" d="M49.5,4.64c-0.36,0-0.66-0.12-0.89-0.35c-0.23-0.23-0.35-0.54-0.35-0.91c0-0.36,0.12-0.66,0.35-0.89
	s0.53-0.35,0.89-0.35c0.38,0,0.68,0.12,0.91,0.35s0.35,0.53,0.35,0.89c0,0.38-0.12,0.68-0.35,0.91C50.18,4.52,49.87,4.64,49.5,4.64z
	 M48.66,17.64V6.72h1.68v10.92H48.66z"/>
<path class="st0" d="M59.47,17.85c-1.25,0-2.15-0.27-2.72-0.82s-0.85-1.44-0.85-2.69V8.12h-2.65V6.72h2.65V3.15h1.68v3.57h4.05v1.41
	h-4.05v6.01c0,0.81,0.17,1.39,0.5,1.73c0.34,0.34,0.9,0.51,1.7,0.51c0.31,0,0.59-0.02,0.84-0.07c0.25-0.05,0.52-0.12,0.8-0.22
	l0.23,1.39c-0.36,0.13-0.72,0.22-1.06,0.28C60.25,17.82,59.88,17.85,59.47,17.85z"/>
<path class="st0" d="M63.73,21.08c0.76-0.15,1.39-0.39,1.9-0.69c0.51-0.31,0.94-0.74,1.3-1.29c0.36-0.55,0.67-1.26,0.93-2.13
	l0.08,1.24L62.98,6.72h1.79l3.72,9.13h0.04l3.38-9.13h1.78l-4.37,10.9c-0.41,1.01-0.85,1.84-1.33,2.5
	c-0.48,0.66-1.04,1.17-1.66,1.54c-0.62,0.37-1.37,0.64-2.24,0.81L63.73,21.08z"/>
<path class="st0" d="M81.35,14.89l-0.97-1.45c0.76-1.33,1.38-2.66,1.88-4c0.5-1.34,0.89-2.75,1.19-4.23l0.97,0.36
	c-0.15,1.16-0.38,2.29-0.67,3.39c-0.29,1.1-0.64,2.15-1.04,3.14C82.31,13.09,81.86,14.02,81.35,14.89z M83.47,19.46V5.71h-2.65V4.3
	h2.65V0.69h1.6V4.3h2.1v1.41h-2.1v13.76H83.47z M86.41,13.42c-0.41-1.29-0.8-2.52-1.19-3.7c-0.39-1.18-0.79-2.35-1.21-3.53
	l1.09-0.55c0.42,1.13,0.83,2.29,1.24,3.45c0.41,1.17,0.83,2.37,1.26,3.6L86.41,13.42z M86.81,12.07l-0.44-1.39
	c2.72-0.81,5.01-1.84,6.88-3.1c1.87-1.25,3.37-2.75,4.5-4.48l1.51,0.5c-0.84,1.32-1.84,2.5-3.01,3.55c-1.17,1.05-2.53,1.98-4.1,2.79
	C90.6,10.76,88.81,11.47,86.81,12.07z M87.63,7.26l-0.97-1.2c0.9-0.83,1.71-1.72,2.44-2.68s1.36-1.96,1.89-3.01l1.55,0.34
	c-0.36,0.8-0.8,1.59-1.31,2.37c-0.51,0.78-1.07,1.53-1.67,2.23C88.96,6.01,88.32,6.66,87.63,7.26z M88.3,19.27v-7.98h10.67v7.98
	h-1.64v-1.11h-7.41v-1.32h7.41v-4.2h-7.41v6.64H88.3z M100.17,12.03c-1.55-0.56-2.99-1.2-4.29-1.93c-1.31-0.73-2.52-1.56-3.62-2.49
	c-1.11-0.93-2.13-1.97-3.07-3.12l1.3-0.8c0.83,1.04,1.73,1.97,2.72,2.81c0.99,0.84,2.08,1.6,3.28,2.27c1.2,0.67,2.53,1.27,4,1.81
	L100.17,12.03z M90.53,3.61V2.26h8.74v1.34H90.53z"/>
<path class="st0" d="M110.67,10.24V5.06h-6.57v3.7h-1.62V3.8h8.19V2.56h-7.46V1.19h16.46v1.36h-7.46V3.8h8.19v4.96h-1.62v-3.7h-6.57
	v5.19H110.67z M103.7,19.36v-8.23h15.5v8.23h-1.64v-0.92h-12.22v-1.32h12.22v-1.79h-12.22v-1.2h12.22v-1.74h-5.31v4.73h-1.6v-4.73
	h-5.31v6.97H103.7z M105.17,7.37V6.19h4.43v1.18H105.17z M105.17,9.72V8.54h4.43v1.18H105.17z M113.29,7.37V6.19h4.43v1.18H113.29z
	 M113.29,9.72V8.54h4.43v1.18H113.29z"/>
<path class="st0" d="M125.35,8.63c-0.24-0.42-0.51-0.88-0.81-1.39c-0.3-0.5-0.61-1.01-0.91-1.52c-0.31-0.51-0.6-0.98-0.86-1.42
	l0.88-1.28c0.42,0.67,0.86,1.4,1.33,2.19c0.47,0.79,0.88,1.51,1.23,2.15L125.35,8.63z M124.07,18.33l-1.28-0.25
	c0.24-0.95,0.43-1.92,0.59-2.92c0.15-0.99,0.27-1.98,0.34-2.96l1.28,0.13c-0.06,1.01-0.16,2.02-0.33,3.03
	C124.5,16.37,124.3,17.36,124.07,18.33z M122.91,11.19l-0.06-1.34l6.97-0.42v1.3L122.91,11.19z M125.18,5.81l-1.11-0.8
	c0.41-0.73,0.79-1.46,1.14-2.21c0.36-0.74,0.7-1.5,1.04-2.29l1.32,0.59c-0.36,0.8-0.75,1.59-1.14,2.37S125.61,5.04,125.18,5.81z
	 M125.18,10.92l-1.11-0.78c0.85-1.2,1.66-2.42,2.4-3.65s1.46-2.51,2.13-3.82l1.24,0.65c-0.7,1.34-1.43,2.64-2.19,3.9
	C126.88,8.46,126.06,9.7,125.18,10.92z M125.85,19.46v-8.93h1.58v8.93H125.85z M129.46,11.92c-0.1-0.53-0.22-1.09-0.36-1.68
	c-0.14-0.59-0.29-1.17-0.44-1.75c-0.15-0.58-0.32-1.12-0.48-1.63l1.24-0.34c0.17,0.52,0.33,1.07,0.49,1.66
	c0.16,0.59,0.31,1.18,0.45,1.77c0.14,0.6,0.26,1.17,0.36,1.71L129.46,11.92z M129.02,17.72c-0.03-0.32-0.07-0.72-0.12-1.19
	c-0.05-0.47-0.1-0.97-0.17-1.49c-0.06-0.53-0.12-1.03-0.18-1.51c-0.06-0.48-0.11-0.89-0.17-1.23l1.28-0.19
	c0.06,0.34,0.12,0.75,0.18,1.23c0.06,0.48,0.13,0.99,0.2,1.53c0.07,0.54,0.13,1.05,0.17,1.52s0.08,0.88,0.13,1.2L129.02,17.72z
	 M130.74,8.61l-1.47-0.63c0.5-0.76,0.96-1.54,1.36-2.35c0.41-0.81,0.77-1.67,1.08-2.56c0.31-0.9,0.59-1.84,0.83-2.83l1.58,0.27
	c-0.24,1.04-0.52,2.02-0.85,2.96c-0.33,0.94-0.7,1.83-1.12,2.69S131.26,7.82,130.74,8.61z M131.33,19.53V4.36h1.6v3.44h8.59v1.32
	h-8.59v3.23h8.59v1.3h-8.59v3.3h3.72V4.68h-3.99V3.29h9.2v1.39h-3.65v12.29h4.01v1.36h-9.28v1.2H131.33z M138.05,4.24l-1.49-0.29
	c0.29-0.57,0.56-1.17,0.81-1.77c0.25-0.61,0.47-1.26,0.66-1.94l1.51,0.23c-0.2,0.7-0.42,1.36-0.66,1.97
	C138.64,3.05,138.36,3.65,138.05,4.24z"/>
<path class="st0" d="M148.01,2.94h-3.76V1.28h3.76V0h1.93v1.28h3.09v1.66h-3.09v1.45h-1.93V2.94z M158.69,7.2
	c-0.29,0.57-0.61,1.13-0.9,1.64h4.41v3.49h-1.91v-1.89h-5.96v1.62h5.9v3.99c0,0.9-0.19,1.43-0.86,1.68
	c-0.67,0.29-1.66,0.29-3.09,0.29c-0.08-0.52-0.31-1.24-0.55-1.72c0.97,0.02,1.93,0.02,2.2,0.02c0.27-0.02,0.36-0.08,0.36-0.31v-2.29
	h-3.97v5.58h-1.91v-5.58h-3.76v4.45h-1.89v-6.11h5.65v-1.62h-5.86v1.89h-1.83V8.84h4.45c-0.19-0.55-0.48-1.2-0.78-1.7l1.3-0.29
	h-4.62v-1.6h7.62c-0.17-0.44-0.36-0.9-0.57-1.26l1.66-0.5c0.31,0.55,0.63,1.2,0.82,1.76h7.2v1.6h-4.87L158.69,7.2z M150.25,6.84
	c0.42,0.61,0.78,1.45,0.94,1.99h4.58c0.29-0.63,0.65-1.43,0.86-1.99H150.25z M162.7,1.28v1.66h-3.82v1.47h-1.93V2.94h-3.11V1.28
	h3.11V0h1.93v1.28H162.7z"/>
<path class="st0" d="M165.31,18.54v-1.39h18.27v1.39H165.31z M165.52,3V1.61h17.85V3H165.52z M169.41,14.72l-1.6-0.36
	c0.97-1.99,1.76-3.99,2.39-6.02c0.63-2.02,1.08-4.05,1.37-6.08l1.64,0.17c-0.28,2.06-0.74,4.12-1.38,6.18
	C171.19,10.68,170.39,12.72,169.41,14.72z M169.2,13.42v-1.3h9.35v1.3H169.2z M177.76,17.89l-1.72-0.17
	c0.62-1.69,1.14-3.38,1.56-5.07c0.43-1.69,0.75-3.38,0.98-5.09h-7.22v-1.3h9.05c-0.22,1.96-0.55,3.9-0.99,5.83
	C178.99,14.01,178.44,15.94,177.76,17.89z"/>
<path class="st0" d="M185.93,19.13l-0.08-1.34c0.78-0.04,1.59-0.1,2.43-0.17c0.83-0.07,1.67-0.15,2.51-0.23
	c0.84-0.08,1.67-0.17,2.5-0.27c0.83-0.1,1.64-0.2,2.44-0.31l0.1,1.28c-1.06,0.17-2.15,0.32-3.27,0.46
	c-1.11,0.14-2.23,0.26-3.35,0.36C188.09,18.99,187,19.07,185.93,19.13z M190.43,18.22v-2.37h-4.18v-1.26h4.18v-1.7V12.7V7.41V7.3
	V5.62h-4.37V4.36h4.37V2.2h1.66v2.16h4.03v1.26h-4.03v1.64v0.15v5.31v0.25v1.62h3.82v1.26h-3.82v2.37H190.43z M186.48,3.15
	l-0.06-1.36c0.78-0.03,1.59-0.07,2.4-0.13c0.82-0.06,1.64-0.13,2.46-0.21s1.61-0.18,2.37-0.29c0.76-0.11,1.48-0.22,2.15-0.34
	l0.21,1.39c-0.91,0.15-1.9,0.3-2.96,0.43c-1.06,0.13-2.16,0.25-3.28,0.34C188.66,3.06,187.56,3.12,186.48,3.15z M186.54,13.29V6.86
	h9.37v6.43h-7.81v-1.22h6.34v-1.51h-6.34V9.59h6.34V8.08h-6.34v5.21H186.54z M196.68,19.3l-1.32-0.84c0.45-0.66,0.85-1.36,1.2-2.1
	s0.64-1.59,0.88-2.53c0.24-0.94,0.43-2.03,0.59-3.27c0.15-1.23,0.27-2.66,0.35-4.28c0.08-1.62,0.12-3.49,0.12-5.61h1.53
	c0,2.17-0.04,4.09-0.12,5.76c-0.08,1.67-0.2,3.15-0.36,4.44c-0.16,1.29-0.37,2.43-0.64,3.43c-0.27,1-0.58,1.9-0.94,2.7
	C197.6,17.8,197.17,18.57,196.68,19.3z M202.38,18.94c-0.29,0-0.7-0.02-1.21-0.07c-0.51-0.05-1.05-0.1-1.61-0.16v-1.49
	c0.53,0.07,1,0.12,1.41,0.16c0.41,0.04,0.73,0.05,0.99,0.05c0.15,0,0.29-0.06,0.42-0.19s0.24-0.38,0.34-0.77
	c0.1-0.38,0.18-0.96,0.24-1.73s0.11-1.79,0.14-3.06c0.03-1.27,0.04-2.86,0.04-4.78V6.34h-7.1V4.93h8.74V5.9
	c0,2.03-0.01,3.77-0.04,5.21c-0.03,1.44-0.08,2.64-0.15,3.6c-0.07,0.96-0.16,1.72-0.28,2.29c-0.12,0.57-0.27,0.99-0.44,1.26
	c-0.18,0.27-0.39,0.45-0.63,0.55C202.98,18.89,202.7,18.94,202.38,18.94z"/>
</svg>
