<?xml version="1.0" encoding="utf-8"?>
<!-- Generator: Adobe Illustrator 25.0.0, SVG Export Plug-In . SVG Version: 6.00 Build 0)  -->
<svg version="1.1" id="圖層_1" xmlns="http://www.w3.org/2000/svg" xmlns:xlink="http://www.w3.org/1999/xlink" x="0px" y="0px"
	 viewBox="0 0 232.64 12" style="enable-background:new 0 0 232.64 12;" xml:space="preserve">
<style type="text/css">
	.st0{fill:#121212;}
</style>
<g>
	<path class="st0" d="M2.33,9.36c-0.42,0-0.84-0.04-1.24-0.13c-0.4-0.09-0.76-0.21-1.08-0.37l0.18-0.79
		c0.34,0.16,0.68,0.28,1.04,0.37c0.36,0.08,0.72,0.13,1.09,0.13c0.51,0,0.9-0.08,1.16-0.25s0.4-0.42,0.4-0.74
		c0-0.22-0.06-0.4-0.18-0.54C3.58,6.88,3.4,6.77,3.17,6.68C2.94,6.6,2.64,6.51,2.28,6.43C1.8,6.31,1.39,6.18,1.05,6.02
		c-0.34-0.15-0.6-0.35-0.78-0.58S0,4.92,0,4.57c0-0.54,0.21-0.96,0.63-1.25C1.05,3.03,1.64,2.88,2.4,2.88c0.4,0,0.8,0.04,1.19,0.12
		c0.39,0.08,0.74,0.2,1.04,0.35L4.46,4.13C4.17,3.98,3.84,3.87,3.49,3.8c-0.35-0.08-0.7-0.11-1.06-0.11c-0.49,0-0.86,0.08-1.1,0.23
		C1.08,4.06,0.96,4.29,0.96,4.58c0,0.19,0.06,0.35,0.17,0.48C1.25,5.19,1.42,5.3,1.65,5.39c0.23,0.09,0.51,0.17,0.83,0.24
		c0.37,0.09,0.7,0.19,0.99,0.29s0.54,0.24,0.74,0.39c0.2,0.15,0.35,0.33,0.46,0.53c0.11,0.2,0.16,0.45,0.16,0.73
		c0,0.57-0.22,1.01-0.66,1.32C3.74,9.2,3.12,9.36,2.33,9.36z"/>
	<path class="st0" d="M9,9.36c-1,0-1.77-0.28-2.32-0.84c-0.54-0.56-0.82-1.36-0.82-2.4c0-1.01,0.26-1.8,0.79-2.38
		C7.18,3.17,7.9,2.88,8.83,2.88c0.89,0,1.57,0.27,2.04,0.81c0.47,0.54,0.71,1.31,0.71,2.32c0,0.08,0,0.16,0,0.25
		c0,0.09,0,0.16-0.01,0.23H6.38V5.72h4.49l-0.18,0.25c0-0.78-0.16-1.36-0.47-1.74C9.91,3.85,9.45,3.66,8.83,3.66
		c-0.66,0-1.16,0.21-1.51,0.62c-0.35,0.41-0.53,1-0.53,1.76v0.24c0,0.75,0.19,1.32,0.56,1.7c0.38,0.38,0.93,0.58,1.66,0.58
		c0.38,0,0.76-0.05,1.12-0.15c0.36-0.1,0.68-0.25,0.97-0.44l0.2,0.76c-0.3,0.2-0.65,0.36-1.05,0.47C9.86,9.3,9.44,9.36,9,9.36z"/>
	<path class="st0" d="M13.9,1.81c-0.21,0-0.38-0.07-0.51-0.2c-0.13-0.13-0.2-0.31-0.2-0.52c0-0.21,0.07-0.38,0.2-0.51
		c0.13-0.13,0.3-0.2,0.51-0.2c0.22,0,0.39,0.07,0.52,0.2c0.13,0.13,0.2,0.3,0.2,0.51c0,0.22-0.07,0.39-0.2,0.52
		S14.11,1.81,13.9,1.81z M13.42,9.24V3h0.96v6.24H13.42z"/>
	<path class="st0" d="M16.33,11.21c0.43-0.09,0.79-0.22,1.09-0.4c0.29-0.18,0.54-0.42,0.74-0.74s0.38-0.72,0.53-1.22l0.05,0.71
		L15.9,3h1.02l2.12,5.22h0.02L21,3h1.02l-2.5,6.23c-0.23,0.58-0.49,1.05-0.76,1.43c-0.28,0.38-0.59,0.67-0.95,0.88
		c-0.36,0.21-0.78,0.37-1.28,0.46L16.33,11.21z"/>
	<path class="st0" d="M25.13,9.36c-0.74,0-1.28-0.23-1.63-0.68c-0.35-0.45-0.53-1.15-0.53-2.08V3h0.95v3.43
		c0,0.72,0.12,1.26,0.36,1.61c0.24,0.35,0.6,0.53,1.09,0.53c0.38,0,0.71-0.09,1-0.27c0.29-0.18,0.52-0.42,0.68-0.72
		c0.17-0.3,0.25-0.64,0.25-1.03V3h0.95v6.24h-0.91l-0.01-0.91c-0.24,0.33-0.55,0.58-0.92,0.76S25.6,9.36,25.13,9.36z"/>
	<path class="st0" d="M32.23,9.36c-0.74,0-1.28-0.23-1.63-0.68c-0.35-0.45-0.53-1.15-0.53-2.08V3h0.95v3.43
		c0,0.72,0.12,1.26,0.36,1.61c0.24,0.35,0.6,0.53,1.09,0.53c0.38,0,0.71-0.09,1-0.27c0.29-0.18,0.52-0.42,0.68-0.72
		c0.17-0.3,0.25-0.64,0.25-1.03V3h0.95v6.24h-0.91l-0.01-0.91c-0.24,0.33-0.55,0.58-0.92,0.76S32.7,9.36,32.23,9.36z"/>
	<path class="st0" d="M41.69,11.76V8.4h-0.02c-0.21,0.3-0.5,0.53-0.88,0.7c-0.38,0.17-0.8,0.26-1.25,0.26
		c-0.83,0-1.48-0.29-1.96-0.86c-0.47-0.57-0.71-1.37-0.71-2.38c0-1.02,0.24-1.81,0.71-2.38s1.12-0.86,1.96-0.86
		c0.45,0,0.87,0.08,1.25,0.25s0.69,0.4,0.92,0.71h0.02V3h0.91v8.76H41.69z M39.73,8.57c0.38,0,0.71-0.08,1-0.24
		c0.29-0.16,0.52-0.38,0.7-0.65c0.17-0.27,0.26-0.58,0.26-0.94V5.5c0-0.35-0.09-0.66-0.26-0.94c-0.17-0.27-0.4-0.49-0.7-0.65
		c-0.29-0.16-0.63-0.24-1-0.24c-0.61,0-1.08,0.21-1.42,0.64c-0.34,0.42-0.51,1.03-0.51,1.81c0,0.78,0.17,1.38,0.51,1.81
		C38.65,8.35,39.12,8.57,39.73,8.57z"/>
	<path class="st0" d="M46.62,9.36c-0.74,0-1.28-0.23-1.63-0.68c-0.35-0.45-0.53-1.15-0.53-2.08V3h0.95v3.43
		c0,0.72,0.12,1.26,0.36,1.61c0.24,0.35,0.6,0.53,1.09,0.53c0.38,0,0.71-0.09,1-0.27c0.29-0.18,0.52-0.42,0.68-0.72
		c0.17-0.3,0.25-0.64,0.25-1.03V3h0.95v6.24h-0.91l-0.01-0.91c-0.24,0.33-0.55,0.58-0.92,0.76S47.09,9.36,46.62,9.36z"/>
	<path class="st0" d="M54.4,9.36c-1,0-1.77-0.28-2.32-0.84c-0.54-0.56-0.82-1.36-0.82-2.4c0-1.01,0.26-1.8,0.79-2.38
		c0.52-0.58,1.25-0.86,2.18-0.86c0.89,0,1.57,0.27,2.04,0.81c0.47,0.54,0.71,1.31,0.71,2.32c0,0.08,0,0.16,0,0.25
		c0,0.09,0,0.16-0.01,0.23h-5.18V5.72h4.49l-0.18,0.25c0-0.78-0.16-1.36-0.47-1.74c-0.31-0.38-0.78-0.58-1.39-0.58
		c-0.66,0-1.16,0.21-1.51,0.62c-0.35,0.41-0.53,1-0.53,1.76v0.24c0,0.75,0.19,1.32,0.56,1.7c0.38,0.38,0.93,0.58,1.66,0.58
		c0.38,0,0.76-0.05,1.12-0.15c0.36-0.1,0.68-0.25,0.97-0.44l0.2,0.76c-0.3,0.2-0.65,0.36-1.05,0.47C55.25,9.3,54.84,9.36,54.4,9.36z
		"/>
	<path class="st0" d="M61.18,9.36c-1,0-1.77-0.28-2.32-0.84c-0.54-0.56-0.82-1.36-0.82-2.4c0-1.01,0.26-1.8,0.79-2.38
		c0.52-0.58,1.25-0.86,2.18-0.86c0.89,0,1.57,0.27,2.04,0.81c0.47,0.54,0.71,1.31,0.71,2.32c0,0.08,0,0.16,0,0.25
		c0,0.09,0,0.16-0.01,0.23h-5.18V5.72h4.49l-0.18,0.25c0-0.78-0.16-1.36-0.47-1.74c-0.31-0.38-0.78-0.58-1.39-0.58
		c-0.66,0-1.16,0.21-1.51,0.62c-0.35,0.41-0.53,1-0.53,1.76v0.24c0,0.75,0.19,1.32,0.56,1.7c0.38,0.38,0.93,0.58,1.66,0.58
		c0.38,0,0.76-0.05,1.12-0.15c0.36-0.1,0.68-0.25,0.97-0.44l0.2,0.76c-0.3,0.2-0.65,0.36-1.05,0.47C62.03,9.3,61.62,9.36,61.18,9.36
		z"/>
	<path class="st0" d="M65.26,9.24V3h0.92l0.01,0.91h0.02c0.24-0.34,0.55-0.59,0.92-0.77c0.38-0.18,0.81-0.26,1.3-0.26
		c0.76,0,1.32,0.22,1.68,0.67C70.48,4,70.66,4.7,70.66,5.64v3.6h-0.95V5.81c0-0.72-0.12-1.26-0.37-1.61s-0.63-0.53-1.14-0.53
		c-0.38,0-0.72,0.09-1.02,0.27c-0.3,0.18-0.54,0.42-0.71,0.71s-0.25,0.64-0.25,1.03v3.55H65.26z"/>
	<path class="st0" d="M76.52,10.56c-0.66,0-1.26-0.11-1.81-0.32S73.7,9.72,73.3,9.32c-0.4-0.4-0.71-0.88-0.93-1.42
		c-0.22-0.54-0.33-1.13-0.33-1.78s0.11-1.25,0.33-1.79c0.22-0.55,0.53-1.02,0.92-1.42c0.4-0.4,0.87-0.7,1.42-0.91
		c0.55-0.21,1.16-0.32,1.81-0.32s1.26,0.11,1.8,0.32c0.54,0.21,1.02,0.52,1.42,0.91c0.4,0.4,0.71,0.87,0.93,1.41
		C80.89,4.86,81,5.46,81,6.12c0,0.81-0.18,1.41-0.55,1.81c-0.37,0.4-0.94,0.6-1.7,0.6c-0.44,0-0.78-0.07-1.01-0.22
		c-0.23-0.14-0.38-0.38-0.43-0.7h-0.01c-0.41,0.61-0.97,0.91-1.68,0.91c-0.42,0-0.76-0.12-1.02-0.35c-0.26-0.23-0.44-0.54-0.52-0.92
		C73.99,6.89,74,6.48,74.11,6.05c0.18-0.76,0.49-1.36,0.93-1.79c0.44-0.43,0.93-0.65,1.49-0.65c0.28,0,0.53,0.07,0.74,0.2
		c0.22,0.13,0.38,0.32,0.49,0.56h0.01l0.18-0.64h0.86l-0.78,3.06c-0.1,0.4-0.11,0.68-0.01,0.83c0.1,0.15,0.33,0.23,0.71,0.23
		c0.51,0,0.89-0.14,1.13-0.41c0.24-0.28,0.36-0.71,0.36-1.31c0-0.74-0.16-1.38-0.47-1.94s-0.75-1-1.31-1.31
		c-0.56-0.31-1.2-0.47-1.93-0.47c-0.73,0-1.37,0.16-1.94,0.47c-0.56,0.32-1,0.75-1.31,1.31c-0.31,0.56-0.47,1.2-0.47,1.93
		c0,0.73,0.16,1.37,0.47,1.93c0.31,0.56,0.75,1,1.31,1.31c0.56,0.32,1.21,0.47,1.94,0.47c0.43,0,0.84-0.06,1.23-0.19
		c0.39-0.12,0.74-0.3,1.05-0.52l0.44,0.56c-0.37,0.28-0.79,0.49-1.25,0.64C77.53,10.49,77.04,10.56,76.52,10.56z M75.74,7.76
		c0.39,0,0.72-0.14,0.98-0.43C76.98,7.04,77.2,6.6,77.36,6c0.07-0.3,0.09-0.58,0.06-0.82c-0.03-0.24-0.11-0.44-0.25-0.59
		s-0.33-0.22-0.59-0.22c-0.35,0-0.68,0.15-0.97,0.46c-0.3,0.31-0.52,0.74-0.67,1.3c-0.07,0.27-0.09,0.53-0.07,0.78
		c0.03,0.25,0.12,0.45,0.26,0.61C75.29,7.68,75.49,7.76,75.74,7.76z"/>
	<path class="st0" d="M84.84,11.88c-0.49,0-0.92-0.06-1.31-0.17c-0.38-0.11-0.73-0.28-1.04-0.5l0.24-0.77
		c0.31,0.22,0.63,0.39,0.95,0.49c0.32,0.1,0.68,0.16,1.08,0.16c0.77,0,1.33-0.2,1.67-0.59c0.35-0.4,0.52-1.01,0.52-1.85V8.09h-0.02
		c-0.22,0.28-0.51,0.5-0.89,0.67S85.25,9,84.79,9c-0.83,0-1.48-0.27-1.96-0.81s-0.71-1.29-0.71-2.25s0.24-1.71,0.71-2.25
		s1.12-0.81,1.96-0.81c0.46,0,0.88,0.08,1.26,0.25s0.68,0.39,0.9,0.67h0.02V3h0.92v5.64c0,1.1-0.25,1.91-0.76,2.44
		C86.64,11.61,85.87,11.88,84.84,11.88z M85,8.21c0.38,0,0.71-0.07,1-0.22s0.52-0.34,0.7-0.58c0.17-0.24,0.26-0.53,0.26-0.86V5.33
		c0-0.32-0.09-0.6-0.26-0.85c-0.17-0.25-0.4-0.44-0.7-0.59s-0.63-0.22-1-0.22c-0.61,0-1.08,0.2-1.42,0.6
		c-0.34,0.4-0.51,0.96-0.51,1.67c0,0.72,0.17,1.28,0.51,1.67S84.39,8.21,85,8.21z"/>
	<path class="st0" d="M89.92,9.24V3h0.89l0.01,0.91h0.02c0.2-0.33,0.47-0.58,0.8-0.76c0.34-0.18,0.72-0.27,1.14-0.27
		c0.43,0,0.8,0.09,1.11,0.27c0.31,0.18,0.52,0.43,0.64,0.76h0.02c0.19-0.34,0.46-0.6,0.8-0.77c0.34-0.17,0.75-0.26,1.23-0.26
		c0.7,0,1.19,0.2,1.49,0.59s0.44,1.05,0.44,1.98v3.79H97.6V5.57c0-0.68-0.1-1.17-0.29-1.46c-0.2-0.29-0.52-0.44-0.98-0.44
		c-0.54,0-0.94,0.18-1.22,0.55c-0.28,0.37-0.42,0.9-0.42,1.61v3.41h-0.92V5.16c0-0.46-0.11-0.83-0.34-1.09
		c-0.22-0.26-0.53-0.4-0.92-0.4c-0.48,0-0.87,0.2-1.18,0.6c-0.31,0.4-0.46,0.92-0.46,1.56v3.41H89.92z"/>
	<path class="st0" d="M101.78,9.36c-0.62,0-1.12-0.17-1.49-0.51c-0.37-0.34-0.55-0.8-0.55-1.37c0-0.73,0.29-1.28,0.88-1.67
		c0.58-0.38,1.42-0.58,2.51-0.58h0.98c0-0.56-0.13-0.96-0.38-1.2s-0.69-0.36-1.31-0.36c-0.42,0-0.82,0.05-1.18,0.16
		c-0.36,0.1-0.73,0.26-1.1,0.48l-0.16-0.8c0.38-0.22,0.78-0.37,1.2-0.47s0.86-0.15,1.34-0.15c0.61,0,1.1,0.08,1.48,0.24
		c0.38,0.16,0.65,0.42,0.82,0.78c0.17,0.36,0.25,0.83,0.25,1.42v3.92h-0.91l-0.01-0.84h-0.02c-0.21,0.28-0.53,0.51-0.97,0.69
		C102.71,9.27,102.25,9.36,101.78,9.36z M102.11,8.57c0.37,0,0.7-0.07,1.01-0.21c0.3-0.14,0.55-0.33,0.73-0.58s0.27-0.51,0.27-0.81
		v-1h-0.86c-0.85,0-1.49,0.12-1.91,0.36c-0.43,0.24-0.64,0.59-0.64,1.04c0,0.37,0.12,0.66,0.37,0.87
		C101.3,8.46,101.65,8.57,102.11,8.57z"/>
	<path class="st0" d="M107.71,1.81c-0.21,0-0.38-0.07-0.51-0.2c-0.13-0.13-0.2-0.31-0.2-0.52c0-0.21,0.07-0.38,0.2-0.51
		c0.13-0.13,0.3-0.2,0.51-0.2c0.22,0,0.39,0.07,0.52,0.2c0.13,0.13,0.2,0.3,0.2,0.51c0,0.22-0.07,0.39-0.2,0.52
		S107.93,1.81,107.71,1.81z M107.23,9.24V3h0.96v6.24H107.23z"/>
	<path class="st0" d="M110.64,9.24V0.48h0.96v8.76H110.64z"/>
	<path class="st0" d="M114.66,9.34c-0.21,0-0.38-0.07-0.51-0.2c-0.13-0.13-0.2-0.3-0.2-0.51c0-0.22,0.07-0.39,0.2-0.52
		c0.13-0.13,0.3-0.2,0.51-0.2c0.22,0,0.39,0.07,0.52,0.2c0.13,0.13,0.2,0.31,0.2,0.52c0,0.21-0.07,0.38-0.2,0.51
		C115.05,9.27,114.88,9.34,114.66,9.34z"/>
	<path class="st0" d="M120,9.36c-0.68,0-1.26-0.13-1.75-0.39c-0.49-0.26-0.86-0.63-1.12-1.12c-0.26-0.48-0.39-1.06-0.39-1.73
		s0.13-1.25,0.39-1.73c0.26-0.48,0.63-0.86,1.12-1.12c0.49-0.26,1.07-0.39,1.75-0.39c0.34,0,0.66,0.03,0.96,0.1
		c0.3,0.07,0.6,0.18,0.89,0.33l-0.18,0.77c-0.27-0.14-0.54-0.24-0.8-0.3c-0.26-0.06-0.53-0.1-0.8-0.1c-0.74,0-1.32,0.21-1.74,0.64
		c-0.42,0.43-0.62,1.03-0.62,1.79c0,0.76,0.21,1.36,0.62,1.79s1,0.65,1.74,0.65c0.27,0,0.54-0.03,0.8-0.1
		c0.26-0.06,0.53-0.16,0.8-0.3l0.18,0.77c-0.29,0.14-0.58,0.25-0.89,0.32C120.65,9.32,120.33,9.36,120,9.36z"/>
	<path class="st0" d="M126.09,9.36c-0.62,0-1.16-0.13-1.62-0.4c-0.46-0.26-0.81-0.64-1.05-1.13c-0.24-0.49-0.37-1.06-0.37-1.72
		c0-0.66,0.12-1.24,0.37-1.72c0.24-0.48,0.59-0.86,1.05-1.12c0.46-0.26,1-0.4,1.62-0.4s1.16,0.13,1.61,0.4
		c0.45,0.26,0.8,0.64,1.05,1.12c0.25,0.48,0.37,1.06,0.37,1.72c0,0.66-0.12,1.23-0.37,1.72c-0.25,0.49-0.6,0.86-1.05,1.13
		C127.26,9.23,126.72,9.36,126.09,9.36z M126.09,8.56c0.66,0,1.17-0.22,1.54-0.65s0.56-1.03,0.56-1.79c0-0.77-0.19-1.37-0.56-1.79
		c-0.37-0.43-0.89-0.64-1.54-0.64s-1.17,0.21-1.54,0.64C124.18,4.75,124,5.35,124,6.12c0,0.76,0.19,1.36,0.56,1.79
		S125.44,8.56,126.09,8.56z"/>
	<path class="st0" d="M130.65,9.24V3h0.89l0.01,0.91h0.02c0.2-0.33,0.47-0.58,0.8-0.76c0.34-0.18,0.72-0.27,1.14-0.27
		c0.43,0,0.8,0.09,1.11,0.27c0.31,0.18,0.52,0.43,0.64,0.76h0.02c0.19-0.34,0.46-0.6,0.8-0.77c0.34-0.17,0.75-0.26,1.23-0.26
		c0.7,0,1.19,0.2,1.49,0.59s0.44,1.05,0.44,1.98v3.79h-0.92V5.57c0-0.68-0.1-1.17-0.29-1.46c-0.2-0.29-0.52-0.44-0.98-0.44
		c-0.54,0-0.94,0.18-1.22,0.55c-0.28,0.37-0.42,0.9-0.42,1.61v3.41h-0.92V5.16c0-0.46-0.11-0.83-0.34-1.09
		c-0.22-0.26-0.53-0.4-0.92-0.4c-0.48,0-0.87,0.2-1.18,0.6c-0.31,0.4-0.46,0.92-0.46,1.56v3.41H130.65z"/>
	<path class="st0" d="M143.71,9.72L147.96,0h0.97l-4.25,9.72H143.71z"/>
	<path class="st0" d="M156.37,9.36c-1.13,0-1.97-0.37-2.53-1.12c-0.56-0.75-0.83-1.87-0.83-3.38s0.28-2.63,0.83-3.38
		c0.56-0.75,1.4-1.12,2.53-1.12c1.12,0,1.96,0.37,2.52,1.12c0.56,0.75,0.84,1.87,0.84,3.38s-0.28,2.63-0.84,3.38
		C158.33,8.99,157.49,9.36,156.37,9.36z M156.37,8.48c0.8,0,1.4-0.3,1.79-0.89s0.59-1.51,0.59-2.73s-0.2-2.13-0.59-2.73
		c-0.39-0.6-0.99-0.89-1.79-0.89s-1.4,0.3-1.79,0.89c-0.39,0.6-0.59,1.51-0.59,2.73s0.2,2.13,0.59,2.73
		C154.97,8.19,155.57,8.48,156.37,8.48z"/>
	<path class="st0" d="M163.97,0.36c0.68,0,1.26,0.13,1.75,0.38c0.48,0.26,0.85,0.63,1.11,1.11c0.26,0.48,0.38,1.09,0.38,1.82
		c0,1.1-0.2,2.05-0.61,2.87c-0.4,0.82-0.99,1.47-1.76,1.95c-0.77,0.48-1.7,0.76-2.78,0.85l-0.16-0.79c1.07-0.1,1.95-0.38,2.63-0.86
		c0.68-0.48,1.16-1.16,1.44-2.03h-0.02c-0.26,0.22-0.58,0.39-0.95,0.51s-0.79,0.19-1.24,0.19c-0.62,0-1.16-0.12-1.62-0.35
		s-0.8-0.58-1.04-1.03c-0.24-0.45-0.36-0.98-0.36-1.58c0-0.63,0.13-1.17,0.39-1.63c0.26-0.45,0.63-0.8,1.12-1.04
		C162.73,0.48,163.3,0.36,163.97,0.36z M163.97,1.22c-0.72,0-1.28,0.19-1.69,0.57c-0.4,0.38-0.61,0.91-0.61,1.59
		c0,0.66,0.2,1.19,0.61,1.57c0.4,0.38,0.97,0.58,1.69,0.58c0.48,0,0.89-0.08,1.23-0.25s0.6-0.41,0.78-0.73
		c0.18-0.32,0.27-0.68,0.27-1.1c0-0.39-0.08-0.76-0.23-1.09c-0.16-0.34-0.4-0.61-0.74-0.82C164.94,1.33,164.5,1.22,163.97,1.22z"/>
	<path class="st0" d="M168.6,8.36c0.9-0.7,1.65-1.31,2.26-1.84c0.61-0.53,1.09-1,1.46-1.42s0.63-0.8,0.79-1.15s0.25-0.69,0.25-1.01
		c0-1.14-0.64-1.72-1.91-1.72c-0.9,0-1.81,0.32-2.74,0.96l-0.32-0.84c0.92-0.66,1.98-1,3.19-1c0.9,0,1.59,0.21,2.06,0.63
		c0.47,0.42,0.7,1.04,0.7,1.85c0,0.38-0.08,0.77-0.23,1.16c-0.15,0.39-0.39,0.8-0.73,1.23c-0.33,0.43-0.77,0.9-1.31,1.41
		c-0.54,0.51-1.21,1.07-1.99,1.7v0.02h4.36v0.88h-5.83V8.36z"/>
	<path class="st0" d="M179.75,9.24V1.6h-0.02l-3.32,1.94l-0.31-0.84l3.66-2.22h0.98v8.76H179.75z"/>
	<path class="st0" d="M183.69,6.2V5.32h3.56V6.2H183.69z"/>
	<path class="st0" d="M192.37,9.24V1.6h-0.02l-3.32,1.94l-0.31-0.84l3.66-2.22h0.98v8.76H192.37z"/>
	<path class="st0" d="M198.93,9.36c-0.5,0-0.98-0.06-1.43-0.18c-0.45-0.12-0.91-0.32-1.39-0.59l0.3-0.82
		c0.42,0.26,0.83,0.44,1.22,0.55c0.39,0.11,0.81,0.17,1.26,0.17c0.77,0,1.36-0.15,1.77-0.46c0.41-0.3,0.62-0.74,0.62-1.32
		c0-0.58-0.25-1.01-0.74-1.27c-0.49-0.26-1.3-0.39-2.42-0.39h-0.58V4.24h0.58c0.94,0,1.67-0.15,2.2-0.45c0.53-0.3,0.8-0.71,0.8-1.24
		c0-0.42-0.18-0.75-0.53-0.98c-0.36-0.23-0.87-0.34-1.53-0.34c-0.28,0-0.55,0.02-0.8,0.07c-0.25,0.05-0.51,0.12-0.78,0.22
		c-0.27,0.1-0.57,0.23-0.89,0.4l-0.26-0.82c0.33-0.18,0.64-0.32,0.94-0.43c0.3-0.11,0.6-0.19,0.91-0.24
		c0.31-0.05,0.63-0.08,0.97-0.08c0.94,0,1.67,0.18,2.18,0.53c0.51,0.36,0.76,0.86,0.76,1.51c0,0.54-0.18,0.99-0.53,1.36
		c-0.36,0.37-0.87,0.64-1.55,0.81V4.6c0.76,0.1,1.33,0.33,1.7,0.69s0.56,0.85,0.56,1.48c0,0.82-0.29,1.45-0.88,1.91
		S199.98,9.36,198.93,9.36z"/>
	<path class="st0" d="M207.56,9.24V1.6h-0.02l-3.32,1.94L203.9,2.7l3.66-2.22h0.98v8.76H207.56z"/>
	<path class="st0" d="M211.61,8.36c0.9-0.7,1.65-1.31,2.26-1.84c0.61-0.53,1.09-1,1.46-1.42s0.63-0.8,0.79-1.15s0.25-0.69,0.25-1.01
		c0-1.14-0.64-1.72-1.91-1.72c-0.9,0-1.81,0.32-2.74,0.96l-0.32-0.84c0.92-0.66,1.98-1,3.19-1c0.9,0,1.59,0.21,2.06,0.63
		c0.47,0.42,0.7,1.04,0.7,1.85c0,0.38-0.08,0.77-0.23,1.16c-0.15,0.39-0.39,0.8-0.73,1.23c-0.33,0.43-0.77,0.9-1.31,1.41
		c-0.54,0.51-1.21,1.07-1.99,1.7v0.02h4.36v0.88h-5.83V8.36z"/>
	<path class="st0" d="M223.2,9.24V7.51h-4.7V6.64l4.7-6.16h0.96v6.16h1.66v0.88h-1.66v1.73H223.2z M219.67,6.64h3.53V2.06h-0.02
		l-3.5,4.55V6.64z"/>
	<path class="st0" d="M229.32,9.36c-0.5,0-0.98-0.06-1.43-0.18c-0.45-0.12-0.91-0.32-1.39-0.59l0.3-0.82
		c0.42,0.26,0.83,0.44,1.22,0.55c0.39,0.11,0.81,0.17,1.26,0.17c0.77,0,1.36-0.15,1.77-0.46c0.41-0.3,0.62-0.74,0.62-1.32
		c0-0.58-0.25-1.01-0.74-1.27c-0.49-0.26-1.3-0.39-2.42-0.39h-0.58V4.24h0.58c0.94,0,1.67-0.15,2.2-0.45c0.53-0.3,0.8-0.71,0.8-1.24
		c0-0.42-0.18-0.75-0.53-0.98c-0.36-0.23-0.87-0.34-1.53-0.34c-0.28,0-0.55,0.02-0.8,0.07c-0.25,0.05-0.51,0.12-0.78,0.22
		c-0.27,0.1-0.57,0.23-0.89,0.4l-0.26-0.82c0.33-0.18,0.64-0.32,0.94-0.43c0.3-0.11,0.6-0.19,0.91-0.24
		c0.31-0.05,0.63-0.08,0.97-0.08c0.94,0,1.67,0.18,2.18,0.53c0.51,0.36,0.76,0.86,0.76,1.51c0,0.54-0.18,0.99-0.53,1.36
		c-0.36,0.37-0.87,0.64-1.55,0.81V4.6c0.76,0.1,1.33,0.33,1.7,0.69s0.56,0.85,0.56,1.48c0,0.82-0.29,1.45-0.88,1.91
		S230.37,9.36,229.32,9.36z"/>
</g>
</svg>
