<?xml version="1.0" encoding="utf-8"?>
<!-- Generator: Adobe Illustrator 25.0.0, SVG Export Plug-In . SVG Version: 6.00 Build 0)  -->
<svg version="1.1" id="圖層_1" xmlns="http://www.w3.org/2000/svg" xmlns:xlink="http://www.w3.org/1999/xlink" x="0px" y="0px"
	 viewBox="0 0 40.24 13.02" style="enable-background:new 0 0 40.24 13.02;" xml:space="preserve">
<style type="text/css">
	.st0{fill:#121212;}
</style>
<g>
	<path class="st0" d="M0,4.62V1.26h5.39V0h1.54v1.26h5.39v3.36h-1.47v-2.1H1.47v2.1H0z M1.89,12.95V3.33h8.54v3.81H3.39V6.02h5.54
		V4.55H3.39v3.6h7.88v4.8h-1.5v-0.7H3.39v-1.12h6.38V9.38H3.39v3.57H1.89z"/>
	<path class="st0" d="M14,11.66l-0.81-1.26c1.57-1.03,2.8-2.3,3.68-3.81s1.44-3.33,1.65-5.44l1.43,0.17
		c-0.12,1.41-0.41,2.73-0.86,3.97c-0.45,1.24-1.07,2.38-1.84,3.42V8.39c-0.5,0.71-1.03,1.34-1.57,1.88
		C15.14,10.81,14.58,11.28,14,11.66z M14.49,6.72V5.57h8.96v-1.2H13.44V3.15h10.01V1.99h-8.68V0.84h10.15v2.31h1.26v1.22h-1.26v2.35
		H14.49z M16.38,12.88V7.73h8.82v5.15h-1.5v-0.63h-5.85v-1.16h5.85v-2.2h-5.85v3.99H16.38z"/>
	<path class="st0" d="M27.72,8.04L26.6,7.83c0.16-0.79,0.3-1.6,0.42-2.42c0.12-0.82,0.21-1.63,0.28-2.44l1.12,0.11
		c-0.07,0.82-0.16,1.65-0.28,2.49C28.02,6.41,27.88,7.23,27.72,8.04z M28.59,13.02V0.42h1.51v12.6H28.59z M30.49,6.16
		c-0.08-0.5-0.18-1.02-0.29-1.56c-0.11-0.54-0.22-1.06-0.34-1.57l1.04-0.24c0.13,0.51,0.25,1.04,0.37,1.59
		c0.12,0.55,0.22,1.07,0.3,1.57L30.49,6.16z M30.87,6.05l-0.04-1.29c0.78-0.04,1.6-0.09,2.44-0.15s1.71-0.14,2.6-0.23
		c0.89-0.09,1.77-0.2,2.66-0.32l0.15,1.22c-0.91,0.14-1.81,0.26-2.7,0.36c-0.9,0.1-1.77,0.19-2.63,0.25
		C32.49,5.96,31.66,6.01,30.87,6.05z M31.57,13.02V6.97h7.6v6.05h-1.51v-0.7h-4.62v-1.23h4.62V8.23h-4.62v4.79H31.57z M33.24,5.31
		l-1.37-0.36c0.34-0.69,0.67-1.45,1.02-2.27c0.34-0.83,0.67-1.65,0.97-2.49l1.43,0.36c-0.32,0.85-0.65,1.68-0.99,2.49
		C33.94,3.85,33.59,4.61,33.24,5.31z M38.96,6.62c-0.21-0.45-0.46-0.92-0.73-1.43s-0.55-1.01-0.83-1.5
		c-0.28-0.5-0.57-0.96-0.85-1.39l1.26-0.59c0.28,0.43,0.56,0.9,0.85,1.41c0.29,0.51,0.57,1.02,0.84,1.52s0.51,0.98,0.73,1.43
		L38.96,6.62z"/>
</g>
</svg>
