<?xml version="1.0" encoding="utf-8"?>
<!-- Generator: Adobe Illustrator 25.0.0, SVG Export Plug-In . SVG Version: 6.00 Build 0)  -->
<svg version="1.1" id="圖層_1" xmlns="http://www.w3.org/2000/svg" xmlns:xlink="http://www.w3.org/1999/xlink" x="0px" y="0px"
	 viewBox="0 0 121.03 53.28" style="enable-background:new 0 0 121.03 53.28;" xml:space="preserve">
<style type="text/css">
	.st0{fill:#F17261;}
</style>
<g>
	<path class="st0" d="M0,52.56V0h38.16v11.52H14.4v8.5h22.32V31.1H14.4v9.94h23.76v11.52H0z"/>
	<path class="st0" d="M51.34,52.56L40.68,15.12h14.54l5.9,28.8h0.14l5.9-28.8h14.54L71.06,52.56H51.34z"/>
	<path class="st0" d="M104.47,53.28c-6.91,0-12.24-1.68-15.98-5.04c-3.74-3.36-5.62-8.16-5.62-14.4c0-6.05,1.73-10.8,5.18-14.26
		s8.21-5.18,14.26-5.18c5.9,0,10.5,1.65,13.79,4.93c3.29,3.29,4.93,7.88,4.93,13.79c0,0.86-0.02,1.82-0.07,2.88
		c-0.05,1.06-0.12,1.78-0.22,2.16H90.79v-8.28h18.79l-1.66,2.52c0-3.12-0.44-5.4-1.33-6.84c-0.89-1.44-2.32-2.16-4.28-2.16
		c-1.92,0-3.34,0.72-4.25,2.16C97.15,27,96.7,29.28,96.7,32.4v4.32c0,2.26,0.62,3.9,1.87,4.93c1.25,1.03,3.26,1.55,6.05,1.55
		c2.11,0,4.36-0.26,6.73-0.79c2.38-0.53,4.4-1.18,6.08-1.94l1.44,10.08c-1.78,0.82-3.94,1.48-6.48,1.98
		C109.85,53.03,107.21,53.28,104.47,53.28z"/>
</g>
</svg>
