<?xml version="1.0" encoding="utf-8"?>
<!-- Generator: Adobe Illustrator 25.0.0, SVG Export Plug-In . SVG Version: 6.00 Build 0)  -->
<svg version="1.1" id="圖層_1" xmlns="http://www.w3.org/2000/svg" xmlns:xlink="http://www.w3.org/1999/xlink" x="0px" y="0px"
	 viewBox="0 0 171.93 53.28" style="enable-background:new 0 0 171.93 53.28;" xml:space="preserve">
<style type="text/css">
	.st0{fill:#121212;}
</style>
<g>
	<path class="st0" d="M0,52.56V0h14.4v22.68h0.14L30.24,0H46.8L29.16,25.56l18.36,27H30.96L14.54,28.44H14.4v24.12H0z"/>
	<path class="st0" d="M59.4,53.28c-4.37,0-7.5-1.28-9.4-3.85c-1.9-2.57-2.84-6.8-2.84-12.71v-21.6h14.11v18.72
		c0,2.79,0.31,4.8,0.94,6.05c0.62,1.25,1.61,1.87,2.95,1.87c1.01,0,1.91-0.26,2.7-0.79c0.79-0.53,1.43-1.22,1.91-2.09
		c0.48-0.86,0.72-1.82,0.72-2.88V15.12H84.6v37.44H71.21l-0.14-5.04h-0.14c-1.63,2.06-3.32,3.54-5.08,4.43
		C64.09,52.84,61.94,53.28,59.4,53.28z"/>
	<path class="st0" d="M101.59,53.28c-3.5,0-6.3-1.04-8.39-3.13c-2.09-2.09-3.13-4.88-3.13-8.39c0-4.13,1.63-7.32,4.9-9.58
		c3.26-2.26,7.87-3.38,13.82-3.38h3.89c0-1.63-0.42-2.76-1.26-3.38c-0.84-0.62-2.34-0.94-4.5-0.94c-2.26,0-4.55,0.28-6.88,0.83
		c-2.33,0.55-4.64,1.38-6.95,2.48l-1.51-10.08c2.64-1.15,5.34-1.99,8.1-2.52c2.76-0.53,5.82-0.79,9.18-0.79
		c4.42,0,7.93,0.47,10.55,1.4c2.62,0.94,4.5,2.46,5.65,4.57c1.15,2.11,1.73,4.92,1.73,8.42v23.76H113.4l-0.14-4.32h-0.14
		c-1.39,1.58-3.1,2.82-5.11,3.71C105.98,52.84,103.85,53.28,101.59,53.28z M107.06,43.56c1.15,0,2.15-0.18,2.99-0.54
		c0.84-0.36,1.49-0.86,1.94-1.51c0.46-0.65,0.68-1.4,0.68-2.27v-2.88h-1.73c-2.83,0-4.91,0.31-6.23,0.94
		c-1.32,0.62-1.98,1.63-1.98,3.02c0,1.06,0.37,1.86,1.12,2.41C104.6,43.28,105.67,43.56,107.06,43.56z"/>
	<path class="st0" d="M133.77,52.56V15.12h13.39l0.14,5.04h0.14c1.68-2.11,3.43-3.6,5.26-4.46c1.82-0.87,4.03-1.3,6.62-1.3
		c4.51,0,7.74,1.29,9.68,3.85c1.94,2.57,2.92,6.8,2.92,12.71v21.6h-14.11V33.84c0-2.83-0.32-4.86-0.97-6.08
		c-0.65-1.22-1.74-1.84-3.28-1.84c-1.06,0-2.02,0.27-2.88,0.79c-0.86,0.53-1.55,1.22-2.05,2.09c-0.5,0.86-0.76,1.82-0.76,2.88v20.88
		H133.77z"/>
</g>
</svg>
